<?xml version="1.0" encoding="UTF-8" standalone="no"?>
<!DOCTYPE svg PUBLIC "-//W3C//DTD SVG 1.1//EN"
 "http://www.w3.org/Graphics/SVG/1.1/DTD/svg11.dtd">
<!-- Generated by graphviz version 2.43.0 (0)
 -->
<!-- Title: G Pages: 1 -->
<svg width="3359pt" height="363pt"
 viewBox="0.00 0.00 3358.63 362.91" xmlns="http://www.w3.org/2000/svg" xmlns:xlink="http://www.w3.org/1999/xlink">
<g id="graph0" class="graph" transform="scale(1 1) rotate(0) translate(4 358.91)">
<title>G</title>
<polygon fill="white" stroke="transparent" points="-4,4 -4,-358.91 3354.63,-358.91 3354.63,4 -4,4"/>
<text text-anchor="middle" x="1675.31" y="-6.8" font-family="Times,serif" font-size="14.00">Ordenação Topológica do Curso Ciência da Computação &#45; 2019.2</text>
<!-- 113034 -->
<g id="node1" class="node">
<title>113034</title>
<ellipse fill="none" stroke="black" cx="36.31" cy="-58.64" rx="36.13" ry="36.13"/>
<text text-anchor="middle" x="36.31" y="-54.44" font-family="Times,serif" font-size="14.00">113034</text>
</g>
<!-- 113042 -->
<g id="node8" class="node">
<title>113042</title>
<ellipse fill="none" stroke="black" cx="270.31" cy="-58.64" rx="36.13" ry="36.13"/>
<text text-anchor="middle" x="270.31" y="-54.44" font-family="Times,serif" font-size="14.00">113042</text>
</g>
<!-- 113034&#45;&gt;113042 -->
<g id="edge1" class="edge">
<title>113034&#45;&gt;113042</title>
<path fill="none" stroke="black" d="M46.73,-93.48C71.54,-170.67 137.98,-344.47 216.81,-282.27 269.41,-240.78 276.04,-157.59 274.36,-105.2"/>
<polygon fill="black" stroke="black" points="277.86,-104.99 273.93,-95.15 270.87,-105.29 277.86,-104.99"/>
<text text-anchor="middle" x="213.31" y="-314.07" font-family="Times,serif" font-size="14.00">6</text>
</g>
<!-- 115045 -->
<g id="node15" class="node">
<title>115045</title>
<ellipse fill="none" stroke="black" cx="144.31" cy="-58.64" rx="36.13" ry="36.13"/>
<text text-anchor="middle" x="144.31" y="-54.44" font-family="Times,serif" font-size="14.00">115045</text>
</g>
<!-- 113034&#45;&gt;115045 -->
<g id="edge2" class="edge">
<title>113034&#45;&gt;115045</title>
<path fill="none" stroke="black" d="M72.88,-58.64C80.79,-58.64 89.27,-58.64 97.52,-58.64"/>
<polygon fill="black" stroke="black" points="97.79,-62.14 107.79,-58.64 97.79,-55.14 97.79,-62.14"/>
<text text-anchor="middle" x="90.31" y="-64.44" font-family="Times,serif" font-size="14.00">6</text>
</g>
<!-- 117536 -->
<g id="node30" class="node">
<title>117536</title>
<ellipse fill="none" stroke="black" cx="577.31" cy="-58.64" rx="36.13" ry="36.13"/>
<text text-anchor="middle" x="577.31" y="-54.44" font-family="Times,serif" font-size="14.00">117536</text>
</g>
<!-- 113034&#45;&gt;117536 -->
<g id="edge3" class="edge">
<title>113034&#45;&gt;117536</title>
<path fill="none" stroke="black" d="M40.78,-95.07C49.33,-147.03 73.3,-240.71 137.81,-282.27 284.22,-376.61 475.49,-179.78 547.85,-94.98"/>
<polygon fill="black" stroke="black" points="550.7,-97.03 554.48,-87.14 545.35,-92.52 550.7,-97.03"/>
<text text-anchor="middle" x="141.31" y="-314.07" font-family="Times,serif" font-size="14.00">6</text>
</g>
<!-- 113468 -->
<g id="node2" class="node">
<title>113468</title>
<ellipse fill="none" stroke="black" cx="2768.31" cy="-58.64" rx="36.13" ry="36.13"/>
<text text-anchor="middle" x="2768.31" y="-54.44" font-family="Times,serif" font-size="14.00">113468</text>
</g>
<!-- 113476 -->
<g id="node3" class="node">
<title>113476</title>
<ellipse fill="none" stroke="black" cx="1919.31" cy="-58.64" rx="36.13" ry="36.13"/>
<text text-anchor="middle" x="1919.31" y="-54.44" font-family="Times,serif" font-size="14.00">113476</text>
</g>
<!-- 129011 -->
<g id="node6" class="node">
<title>129011</title>
<ellipse fill="none" stroke="black" cx="2154.31" cy="-58.64" rx="36.13" ry="36.13"/>
<text text-anchor="middle" x="2154.31" y="-54.44" font-family="Times,serif" font-size="14.00">129011</text>
</g>
<!-- 113476&#45;&gt;129011 -->
<g id="edge4" class="edge">
<title>113476&#45;&gt;129011</title>
<path fill="none" stroke="red" d="M1929.83,-93.5C1954.85,-170.73 2021.81,-344.61 2100.81,-282.27 2153.41,-240.78 2160.04,-157.59 2158.36,-105.2"/>
<polygon fill="red" stroke="red" points="2161.86,-104.99 2157.93,-95.15 2154.87,-105.29 2161.86,-104.99"/>
<text text-anchor="middle" x="2097.31" y="-314.07" font-family="Times,serif" font-size="14.00">6</text>
</g>
<!-- 129020 -->
<g id="node7" class="node">
<title>129020</title>
<ellipse fill="none" stroke="black" cx="2027.31" cy="-58.64" rx="36.77" ry="36.77"/>
<text text-anchor="middle" x="2027.31" y="-54.44" font-family="Times,serif" font-size="14.00">129020</text>
</g>
<!-- 113476&#45;&gt;129020 -->
<g id="edge5" class="edge">
<title>113476&#45;&gt;129020</title>
<path fill="none" stroke="black" d="M1955.88,-58.64C1963.71,-58.64 1972.09,-58.64 1980.25,-58.64"/>
<polygon fill="black" stroke="black" points="1980.42,-62.14 1990.42,-58.64 1980.42,-55.14 1980.42,-62.14"/>
<text text-anchor="middle" x="1973.15" y="-64.44" font-family="Times,serif" font-size="14.00">6</text>
</g>
<!-- 116726 -->
<g id="node4" class="node">
<title>116726</title>
<ellipse fill="none" stroke="black" cx="2859.31" cy="-58.64" rx="36.13" ry="36.13"/>
<text text-anchor="middle" x="2859.31" y="-54.44" font-family="Times,serif" font-size="14.00">116726</text>
</g>
<!-- 113450 -->
<g id="node5" class="node">
<title>113450</title>
<ellipse fill="none" stroke="black" cx="2950.31" cy="-58.64" rx="36.13" ry="36.13"/>
<text text-anchor="middle" x="2950.31" y="-54.44" font-family="Times,serif" font-size="14.00">113450</text>
</g>
<!-- 116394 -->
<g id="node11" class="node">
<title>116394</title>
<ellipse fill="none" stroke="black" cx="2262.31" cy="-58.64" rx="36.13" ry="36.13"/>
<text text-anchor="middle" x="2262.31" y="-54.44" font-family="Times,serif" font-size="14.00">116394</text>
</g>
<!-- 129011&#45;&gt;116394 -->
<g id="edge19" class="edge">
<title>129011&#45;&gt;116394</title>
<path fill="none" stroke="red" d="M2190.88,-58.64C2198.79,-58.64 2207.27,-58.64 2215.52,-58.64"/>
<polygon fill="red" stroke="red" points="2215.79,-62.14 2225.79,-58.64 2215.79,-55.14 2215.79,-62.14"/>
<text text-anchor="middle" x="2208.31" y="-64.44" font-family="Times,serif" font-size="14.00">4</text>
</g>
<!-- 129020&#45;&gt;116394 -->
<g id="edge20" class="edge">
<title>129020&#45;&gt;116394</title>
<path fill="none" stroke="black" d="M2023.87,-95.17C2021.33,-146.35 2025.56,-238.09 2081.81,-282.27 2157.54,-341.76 2221.67,-184.45 2248.66,-103.42"/>
<polygon fill="black" stroke="black" points="2252.13,-104.05 2251.91,-93.46 2245.48,-101.88 2252.13,-104.05"/>
<text text-anchor="middle" x="2085.31" y="-314.07" font-family="Times,serif" font-size="14.00">2</text>
</g>
<!-- 113417 -->
<g id="node14" class="node">
<title>113417</title>
<ellipse fill="none" stroke="black" cx="378.31" cy="-58.64" rx="36.13" ry="36.13"/>
<text text-anchor="middle" x="378.31" y="-54.44" font-family="Times,serif" font-size="14.00">113417</text>
</g>
<!-- 113042&#45;&gt;113417 -->
<g id="edge17" class="edge">
<title>113042&#45;&gt;113417</title>
<path fill="none" stroke="black" d="M306.88,-58.64C314.79,-58.64 323.27,-58.64 331.52,-58.64"/>
<polygon fill="black" stroke="black" points="331.79,-62.14 341.79,-58.64 331.79,-55.14 331.79,-62.14"/>
<text text-anchor="middle" x="324.31" y="-64.44" font-family="Times,serif" font-size="14.00">6</text>
</g>
<!-- 113093 -->
<g id="node9" class="node">
<title>113093</title>
<ellipse fill="none" stroke="black" cx="3041.31" cy="-58.64" rx="36.13" ry="36.13"/>
<text text-anchor="middle" x="3041.31" y="-54.44" font-family="Times,serif" font-size="14.00">113093</text>
</g>
<!-- 116319 -->
<g id="node10" class="node">
<title>116319</title>
<ellipse fill="none" stroke="black" cx="469.31" cy="-58.64" rx="36.13" ry="36.13"/>
<text text-anchor="middle" x="469.31" y="-54.44" font-family="Times,serif" font-size="14.00">116319</text>
</g>
<!-- 117889 -->
<g id="node12" class="node">
<title>117889</title>
<ellipse fill="none" stroke="black" cx="1413.31" cy="-58.64" rx="36.13" ry="36.13"/>
<text text-anchor="middle" x="1413.31" y="-54.44" font-family="Times,serif" font-size="14.00">117889</text>
</g>
<!-- 116319&#45;&gt;117889 -->
<g id="edge6" class="edge">
<title>116319&#45;&gt;117889</title>
<path fill="none" stroke="black" d="M499.86,-78.63C509.9,-84.59 521.32,-90.74 532.31,-95.27 835.75,-220.48 921.25,-240.38 1246.81,-282.27 1335.36,-293.67 1382.74,-172.57 1402.31,-103.97"/>
<polygon fill="black" stroke="black" points="1405.71,-104.83 1405,-94.26 1398.96,-102.96 1405.71,-104.83"/>
<text text-anchor="middle" x="1250.31" y="-314.07" font-family="Times,serif" font-size="14.00">4</text>
</g>
<!-- 117366 -->
<g id="node16" class="node">
<title>117366</title>
<ellipse fill="none" stroke="black" cx="1322.31" cy="-58.64" rx="36.13" ry="36.13"/>
<text text-anchor="middle" x="1322.31" y="-54.44" font-family="Times,serif" font-size="14.00">117366</text>
</g>
<!-- 116319&#45;&gt;117366 -->
<g id="edge7" class="edge">
<title>116319&#45;&gt;117366</title>
<path fill="none" stroke="black" d="M468.82,-95.05C470.34,-146.54 481.72,-239.13 540.81,-282.27 677.02,-381.72 1125.34,-170.43 1276.31,-95.27 1279.91,-93.48 1283.49,-91.38 1286.97,-89.09"/>
<polygon fill="black" stroke="black" points="1289.25,-91.77 1295.38,-83.13 1285.2,-86.06 1289.25,-91.77"/>
<text text-anchor="middle" x="544.31" y="-314.07" font-family="Times,serif" font-size="14.00">4</text>
</g>
<!-- 117901 -->
<g id="node18" class="node">
<title>117901</title>
<ellipse fill="none" stroke="black" cx="1231.31" cy="-58.64" rx="36.13" ry="36.13"/>
<text text-anchor="middle" x="1231.31" y="-54.44" font-family="Times,serif" font-size="14.00">117901</text>
</g>
<!-- 116319&#45;&gt;117901 -->
<g id="edge8" class="edge">
<title>116319&#45;&gt;117901</title>
<path fill="none" stroke="black" d="M499.99,-78.32C510.04,-84.27 521.43,-90.48 532.31,-95.27 660.99,-151.97 1019.62,-359.98 1136.81,-282.27 1196.09,-242.97 1218.28,-158.31 1226.52,-105.16"/>
<polygon fill="black" stroke="black" points="1230.03,-105.38 1227.99,-94.98 1223.1,-104.38 1230.03,-105.38"/>
<text text-anchor="middle" x="1133.31" y="-314.07" font-family="Times,serif" font-size="14.00">4</text>
</g>
<!-- 116572 -->
<g id="node19" class="node">
<title>116572</title>
<ellipse fill="none" stroke="black" cx="1032.31" cy="-58.64" rx="36.13" ry="36.13"/>
<text text-anchor="middle" x="1032.31" y="-54.44" font-family="Times,serif" font-size="14.00">116572</text>
</g>
<!-- 116319&#45;&gt;116572 -->
<g id="edge9" class="edge">
<title>116319&#45;&gt;116572</title>
<path fill="none" stroke="black" d="M472.31,-94.95C478.75,-146.75 498.94,-240.24 561.81,-282.27 715.84,-385.25 924.64,-180.21 1001.92,-94.18"/>
<polygon fill="black" stroke="black" points="1004.74,-96.28 1008.77,-86.48 999.51,-91.63 1004.74,-96.28"/>
<text text-anchor="middle" x="565.31" y="-314.07" font-family="Times,serif" font-size="14.00">4</text>
</g>
<!-- 116343 -->
<g id="node20" class="node">
<title>116343</title>
<ellipse fill="none" stroke="black" cx="941.31" cy="-58.64" rx="36.13" ry="36.13"/>
<text text-anchor="middle" x="941.31" y="-54.44" font-family="Times,serif" font-size="14.00">116343</text>
</g>
<!-- 116319&#45;&gt;116343 -->
<g id="edge10" class="edge">
<title>116319&#45;&gt;116343</title>
<path fill="none" stroke="black" d="M489.41,-88.97C543.35,-166.49 695.92,-360.46 824.81,-282.27 888.46,-243.67 918.95,-157.68 932.26,-104.29"/>
<polygon fill="black" stroke="black" points="935.7,-104.93 934.62,-94.39 928.89,-103.31 935.7,-104.93"/>
<text text-anchor="middle" x="821.31" y="-314.07" font-family="Times,serif" font-size="14.00">4</text>
</g>
<!-- 116653 -->
<g id="node24" class="node">
<title>116653</title>
<ellipse fill="none" stroke="black" cx="850.31" cy="-58.64" rx="36.13" ry="36.13"/>
<text text-anchor="middle" x="850.31" y="-54.44" font-family="Times,serif" font-size="14.00">116653</text>
</g>
<!-- 116319&#45;&gt;116653 -->
<g id="edge11" class="edge">
<title>116319&#45;&gt;116653</title>
<path fill="none" stroke="black" d="M474.99,-94.74C485.33,-146.74 512.61,-240.98 578.81,-282.27 680.34,-345.61 785.51,-180.96 829.26,-100.24"/>
<polygon fill="black" stroke="black" points="832.42,-101.76 834.04,-91.29 826.24,-98.46 832.42,-101.76"/>
<text text-anchor="middle" x="582.31" y="-314.07" font-family="Times,serif" font-size="14.00">4</text>
</g>
<!-- 116432 -->
<g id="node25" class="node">
<title>116432</title>
<ellipse fill="none" stroke="black" cx="2370.31" cy="-58.64" rx="36.13" ry="36.13"/>
<text text-anchor="middle" x="2370.31" y="-54.44" font-family="Times,serif" font-size="14.00">116432</text>
</g>
<!-- 116319&#45;&gt;116432 -->
<g id="edge12" class="edge">
<title>116319&#45;&gt;116432</title>
<path fill="none" stroke="black" d="M487.93,-90.45C527.76,-153.91 627.65,-289.58 749.81,-282.27 1445.76,-240.64 1646.2,-316.65 2307.31,-95.27 2315.51,-92.53 2323.81,-88.65 2331.58,-84.42"/>
<polygon fill="black" stroke="black" points="2333.49,-87.36 2340.43,-79.35 2330.01,-81.29 2333.49,-87.36"/>
<text text-anchor="middle" x="746.31" y="-314.07" font-family="Times,serif" font-size="14.00">4</text>
</g>
<!-- 116416 -->
<g id="node28" class="node">
<title>116416</title>
<ellipse fill="none" stroke="black" cx="759.31" cy="-58.64" rx="36.13" ry="36.13"/>
<text text-anchor="middle" x="759.31" y="-54.44" font-family="Times,serif" font-size="14.00">116416</text>
</g>
<!-- 116319&#45;&gt;116416 -->
<g id="edge13" class="edge">
<title>116319&#45;&gt;116416</title>
<path fill="none" stroke="black" d="M477.1,-94.47C490.57,-146.57 523.68,-241.48 592.81,-282.27 672.31,-329.18 725.76,-182.13 747.85,-104.04"/>
<polygon fill="black" stroke="black" points="751.35,-104.53 750.64,-93.96 744.6,-102.67 751.35,-104.53"/>
<text text-anchor="middle" x="596.31" y="-314.07" font-family="Times,serif" font-size="14.00">4</text>
</g>
<!-- 117943 -->
<g id="node29" class="node">
<title>117943</title>
<ellipse fill="none" stroke="black" cx="668.31" cy="-58.64" rx="36.13" ry="36.13"/>
<text text-anchor="middle" x="668.31" y="-54.44" font-family="Times,serif" font-size="14.00">117943</text>
</g>
<!-- 116319&#45;&gt;117943 -->
<g id="edge14" class="edge">
<title>116319&#45;&gt;117943</title>
<path fill="none" stroke="black" d="M476.54,-94.51C493.55,-171.07 540.23,-339.05 612.81,-282.27 665.69,-240.92 673.09,-157.68 671.92,-105.24"/>
<polygon fill="black" stroke="black" points="675.41,-105.07 671.58,-95.19 668.42,-105.3 675.41,-105.07"/>
<text text-anchor="middle" x="609.31" y="-314.07" font-family="Times,serif" font-size="14.00">4</text>
</g>
<!-- 116319&#45;&gt;117536 -->
<g id="edge15" class="edge">
<title>116319&#45;&gt;117536</title>
<path fill="none" stroke="black" d="M505.88,-58.64C513.79,-58.64 522.27,-58.64 530.52,-58.64"/>
<polygon fill="black" stroke="black" points="530.79,-62.14 540.79,-58.64 530.79,-55.14 530.79,-62.14"/>
<text text-anchor="middle" x="523.31" y="-64.44" font-family="Times,serif" font-size="14.00">4</text>
</g>
<!-- 116394&#45;&gt;116432 -->
<g id="edge26" class="edge">
<title>116394&#45;&gt;116432</title>
<path fill="none" stroke="red" d="M2298.88,-58.64C2306.79,-58.64 2315.27,-58.64 2323.52,-58.64"/>
<polygon fill="red" stroke="red" points="2323.79,-62.14 2333.79,-58.64 2323.79,-55.14 2323.79,-62.14"/>
<text text-anchor="middle" x="2316.31" y="-64.44" font-family="Times,serif" font-size="14.00">4</text>
</g>
<!-- 117897 -->
<g id="node17" class="node">
<title>117897</title>
<ellipse fill="none" stroke="black" cx="1612.31" cy="-58.64" rx="36.13" ry="36.13"/>
<text text-anchor="middle" x="1612.31" y="-54.44" font-family="Times,serif" font-size="14.00">117897</text>
</g>
<!-- 117889&#45;&gt;117897 -->
<g id="edge21" class="edge">
<title>117889&#45;&gt;117897</title>
<path fill="none" stroke="black" d="M1416.8,-94.99C1423.95,-146.85 1445.4,-240.4 1508.81,-282.27 1576.46,-326.95 1600.67,-182.95 1608.68,-105.12"/>
<polygon fill="black" stroke="black" points="1612.18,-105.36 1609.67,-95.06 1605.21,-104.67 1612.18,-105.36"/>
<text text-anchor="middle" x="1512.31" y="-314.07" font-family="Times,serif" font-size="14.00">4</text>
</g>
<!-- 116441 -->
<g id="node22" class="node">
<title>116441</title>
<ellipse fill="none" stroke="black" cx="1521.31" cy="-58.64" rx="36.13" ry="36.13"/>
<text text-anchor="middle" x="1521.31" y="-54.44" font-family="Times,serif" font-size="14.00">116441</text>
</g>
<!-- 117889&#45;&gt;116441 -->
<g id="edge22" class="edge">
<title>117889&#45;&gt;116441</title>
<path fill="none" stroke="black" d="M1449.88,-58.64C1457.79,-58.64 1466.27,-58.64 1474.52,-58.64"/>
<polygon fill="black" stroke="black" points="1474.79,-62.14 1484.79,-58.64 1474.79,-55.14 1474.79,-62.14"/>
<text text-anchor="middle" x="1467.31" y="-64.44" font-family="Times,serif" font-size="14.00">4</text>
</g>
<!-- 113107 -->
<g id="node13" class="node">
<title>113107</title>
<ellipse fill="none" stroke="black" cx="2461.31" cy="-58.64" rx="36.13" ry="36.13"/>
<text text-anchor="middle" x="2461.31" y="-54.44" font-family="Times,serif" font-size="14.00">113107</text>
</g>
<!-- 116882 -->
<g id="node27" class="node">
<title>116882</title>
<ellipse fill="none" stroke="black" cx="2569.31" cy="-58.64" rx="36.13" ry="36.13"/>
<text text-anchor="middle" x="2569.31" y="-54.44" font-family="Times,serif" font-size="14.00">116882</text>
</g>
<!-- 113107&#45;&gt;116882 -->
<g id="edge16" class="edge">
<title>113107&#45;&gt;116882</title>
<path fill="none" stroke="black" d="M2497.88,-58.64C2505.79,-58.64 2514.27,-58.64 2522.52,-58.64"/>
<polygon fill="black" stroke="black" points="2522.79,-62.14 2532.79,-58.64 2522.79,-55.14 2522.79,-62.14"/>
<text text-anchor="middle" x="2515.31" y="-64.44" font-family="Times,serif" font-size="14.00">4</text>
</g>
<!-- 115045&#45;&gt;117943 -->
<g id="edge18" class="edge">
<title>115045&#45;&gt;117943</title>
<path fill="none" stroke="black" d="M140.7,-95.15C137.91,-146.31 141.71,-238.01 197.81,-282.27 343.93,-397.56 559.17,-182.98 637.98,-94.38"/>
<polygon fill="black" stroke="black" points="640.75,-96.53 644.73,-86.71 635.5,-91.9 640.75,-96.53"/>
<text text-anchor="middle" x="201.31" y="-314.07" font-family="Times,serif" font-size="14.00">4</text>
</g>
<!-- 117935 -->
<g id="node21" class="node">
<title>117935</title>
<ellipse fill="none" stroke="black" cx="1720.31" cy="-58.64" rx="36.13" ry="36.13"/>
<text text-anchor="middle" x="1720.31" y="-54.44" font-family="Times,serif" font-size="14.00">117935</text>
</g>
<!-- 117897&#45;&gt;117935 -->
<g id="edge27" class="edge">
<title>117897&#45;&gt;117935</title>
<path fill="none" stroke="black" d="M1648.88,-58.64C1656.79,-58.64 1665.27,-58.64 1673.52,-58.64"/>
<polygon fill="black" stroke="black" points="1673.79,-62.14 1683.79,-58.64 1673.79,-55.14 1673.79,-62.14"/>
<text text-anchor="middle" x="1666.31" y="-64.44" font-family="Times,serif" font-size="14.00">4</text>
</g>
<!-- 117927 -->
<g id="node32" class="node">
<title>117927</title>
<ellipse fill="none" stroke="black" cx="1140.31" cy="-58.64" rx="36.13" ry="36.13"/>
<text text-anchor="middle" x="1140.31" y="-54.44" font-family="Times,serif" font-size="14.00">117927</text>
</g>
<!-- 116572&#45;&gt;117927 -->
<g id="edge23" class="edge">
<title>116572&#45;&gt;117927</title>
<path fill="none" stroke="black" d="M1068.88,-58.64C1076.79,-58.64 1085.27,-58.64 1093.52,-58.64"/>
<polygon fill="black" stroke="black" points="1093.79,-62.14 1103.79,-58.64 1093.79,-55.14 1093.79,-62.14"/>
<text text-anchor="middle" x="1086.31" y="-64.44" font-family="Times,serif" font-size="14.00">4</text>
</g>
<!-- 117951 -->
<g id="node31" class="node">
<title>117951</title>
<ellipse fill="none" stroke="black" cx="2677.31" cy="-58.64" rx="36.13" ry="36.13"/>
<text text-anchor="middle" x="2677.31" y="-54.44" font-family="Times,serif" font-size="14.00">117951</text>
</g>
<!-- 116343&#45;&gt;117951 -->
<g id="edge24" class="edge">
<title>116343&#45;&gt;117951</title>
<path fill="none" stroke="black" d="M947.04,-94.59C959.54,-159.16 995.58,-287.64 1083.81,-282.27 1767.83,-240.64 1964.72,-313.54 2614.31,-95.27 2622.5,-92.52 2630.81,-88.63 2638.58,-84.41"/>
<polygon fill="black" stroke="black" points="2640.48,-87.35 2647.42,-79.34 2637,-81.27 2640.48,-87.35"/>
<text text-anchor="middle" x="1080.31" y="-314.07" font-family="Times,serif" font-size="14.00">4</text>
</g>
<!-- 117960 -->
<g id="node26" class="node">
<title>117960</title>
<ellipse fill="none" stroke="black" cx="1828.31" cy="-58.64" rx="36.13" ry="36.13"/>
<text text-anchor="middle" x="1828.31" y="-54.44" font-family="Times,serif" font-size="14.00">117960</text>
</g>
<!-- 117935&#45;&gt;117960 -->
<g id="edge29" class="edge">
<title>117935&#45;&gt;117960</title>
<path fill="none" stroke="black" d="M1756.88,-58.64C1764.79,-58.64 1773.27,-58.64 1781.52,-58.64"/>
<polygon fill="black" stroke="black" points="1781.79,-62.14 1791.79,-58.64 1781.79,-55.14 1781.79,-62.14"/>
<text text-anchor="middle" x="1774.31" y="-64.44" font-family="Times,serif" font-size="14.00">4</text>
</g>
<!-- 116378 -->
<g id="node23" class="node">
<title>116378</title>
<ellipse fill="none" stroke="black" cx="3132.31" cy="-58.64" rx="36.13" ry="36.13"/>
<text text-anchor="middle" x="3132.31" y="-54.44" font-family="Times,serif" font-size="14.00">116378</text>
</g>
<!-- 116432&#45;&gt;117951 -->
<g id="edge28" class="edge">
<title>116432&#45;&gt;117951</title>
<path fill="none" stroke="red" d="M2381.62,-93.42C2400.67,-145.55 2444.64,-242.1 2519.81,-282.27 2599.38,-324.79 2647.59,-181.06 2667.16,-104.08"/>
<polygon fill="red" stroke="red" points="2670.62,-104.69 2669.63,-94.14 2663.83,-103 2670.62,-104.69"/>
<text text-anchor="middle" x="2523.31" y="-314.07" font-family="Times,serif" font-size="14.00">4</text>
</g>
<!-- 116882&#45;&gt;117951 -->
<g id="edge25" class="edge">
<title>116882&#45;&gt;117951</title>
<path fill="none" stroke="black" d="M2605.88,-58.64C2613.79,-58.64 2622.27,-58.64 2630.52,-58.64"/>
<polygon fill="black" stroke="black" points="2630.79,-62.14 2640.79,-58.64 2630.79,-55.14 2630.79,-62.14"/>
<text text-anchor="middle" x="2623.31" y="-64.44" font-family="Times,serif" font-size="14.00">6</text>
</g>
<!-- 117919 -->
<g id="node33" class="node">
<title>117919</title>
<ellipse fill="none" stroke="black" cx="3223.31" cy="-58.64" rx="36.13" ry="36.13"/>
<text text-anchor="middle" x="3223.31" y="-54.44" font-family="Times,serif" font-size="14.00">117919</text>
</g>
<!-- 116297 -->
<g id="node34" class="node">
<title>116297</title>
<ellipse fill="none" stroke="black" cx="3314.31" cy="-58.64" rx="36.13" ry="36.13"/>
<text text-anchor="middle" x="3314.31" y="-54.44" font-family="Times,serif" font-size="14.00">116297</text>
</g>
</g>
</svg>
