<?xml version="1.0" encoding="UTF-8" standalone="no"?>
<!DOCTYPE svg PUBLIC "-//W3C//DTD SVG 1.1//EN"
 "http://www.w3.org/Graphics/SVG/1.1/DTD/svg11.dtd">
<!-- Generated by graphviz version 2.43.0 (0)
 -->
<!-- Title: G Pages: 1 -->
<svg width="2836pt" height="560pt"
 viewBox="0.00 0.00 2835.79 560.00" xmlns="http://www.w3.org/2000/svg" xmlns:xlink="http://www.w3.org/1999/xlink">
<g id="graph0" class="graph" transform="scale(1 1) rotate(0) translate(4 556)">
<title>G</title>
<polygon fill="white" stroke="transparent" points="-4,4 -4,-556 2831.79,-556 2831.79,4 -4,4"/>
<!-- Calculo_I -->
<g id="node1" class="node">
<title>Calculo_I</title>
<ellipse fill="none" stroke="black" cx="251.4" cy="-362" rx="44.96" ry="18"/>
<text text-anchor="middle" x="251.4" y="-357.8" font-family="Times,serif" font-size="14.00">Calculo_I</text>
</g>
<!-- Calculo_II -->
<g id="node2" class="node">
<title>Calculo_II</title>
<ellipse fill="none" stroke="black" cx="77.4" cy="-276" rx="47.85" ry="18"/>
<text text-anchor="middle" x="77.4" y="-271.8" font-family="Times,serif" font-size="14.00">Calculo_II</text>
</g>
<!-- Calculo_I&#45;&gt;Calculo_II -->
<g id="edge1" class="edge">
<title>Calculo_I&#45;&gt;Calculo_II</title>
<path fill="none" stroke="black" d="M223.82,-347.69C194.43,-333.5 147.71,-310.94 114.96,-295.14"/>
<polygon fill="black" stroke="black" points="116.23,-291.86 105.7,-290.67 113.19,-298.17 116.23,-291.86"/>
<text text-anchor="middle" x="178.9" y="-314.8" font-family="Times,serif" font-size="14.00">6</text>
</g>
<!-- Probabilidade_e_Estatistica -->
<g id="node3" class="node">
<title>Probabilidade_e_Estatistica</title>
<ellipse fill="none" stroke="black" cx="251.4" cy="-276" rx="108.18" ry="18"/>
<text text-anchor="middle" x="251.4" y="-271.8" font-family="Times,serif" font-size="14.00">Probabilidade_e_Estatistica</text>
</g>
<!-- Calculo_I&#45;&gt;Probabilidade_e_Estatistica -->
<g id="edge2" class="edge">
<title>Calculo_I&#45;&gt;Probabilidade_e_Estatistica</title>
<path fill="none" stroke="black" d="M251.4,-343.6C251.4,-332.26 251.4,-317.23 251.4,-304.32"/>
<polygon fill="black" stroke="black" points="254.9,-304.1 251.4,-294.1 247.9,-304.1 254.9,-304.1"/>
<text text-anchor="middle" x="254.9" y="-314.8" font-family="Times,serif" font-size="14.00">4</text>
</g>
<!-- Projeto_e_Analise_de_Algoritmos -->
<g id="node4" class="node">
<title>Projeto_e_Analise_de_Algoritmos</title>
<ellipse fill="none" stroke="black" cx="510.4" cy="-276" rx="132.83" ry="18"/>
<text text-anchor="middle" x="510.4" y="-271.8" font-family="Times,serif" font-size="14.00">Projeto_e_Analise_de_Algoritmos</text>
</g>
<!-- Calculo_I&#45;&gt;Projeto_e_Analise_de_Algoritmos -->
<g id="edge3" class="edge">
<title>Calculo_I&#45;&gt;Projeto_e_Analise_de_Algoritmos</title>
<path fill="none" stroke="black" d="M285.26,-350.02C327.51,-336.32 400.45,-312.66 451.84,-295.99"/>
<polygon fill="black" stroke="black" points="453.06,-299.28 461.49,-292.86 450.9,-292.62 453.06,-299.28"/>
<text text-anchor="middle" x="400.9" y="-314.8" font-family="Times,serif" font-size="14.00">4</text>
</g>
<!-- Calculo_Numerico -->
<g id="node12" class="node">
<title>Calculo_Numerico</title>
<ellipse fill="none" stroke="black" cx="77.4" cy="-190" rx="77.29" ry="18"/>
<text text-anchor="middle" x="77.4" y="-185.8" font-family="Times,serif" font-size="14.00">Calculo_Numerico</text>
</g>
<!-- Calculo_II&#45;&gt;Calculo_Numerico -->
<g id="edge8" class="edge">
<title>Calculo_II&#45;&gt;Calculo_Numerico</title>
<path fill="none" stroke="black" d="M77.4,-257.6C77.4,-246.26 77.4,-231.23 77.4,-218.32"/>
<polygon fill="black" stroke="black" points="80.9,-218.1 77.4,-208.1 73.9,-218.1 80.9,-218.1"/>
<text text-anchor="middle" x="80.9" y="-228.8" font-family="Times,serif" font-size="14.00">4</text>
</g>
<!-- Computacao_Experimental -->
<g id="node23" class="node">
<title>Computacao_Experimental</title>
<ellipse fill="none" stroke="black" cx="567.4" cy="-190" rx="106.73" ry="18"/>
<text text-anchor="middle" x="567.4" y="-185.8" font-family="Times,serif" font-size="14.00">Computacao_Experimental</text>
</g>
<!-- Probabilidade_e_Estatistica&#45;&gt;Computacao_Experimental -->
<g id="edge23" class="edge">
<title>Probabilidade_e_Estatistica&#45;&gt;Computacao_Experimental</title>
<path fill="none" stroke="black" d="M306.44,-260.37C361.18,-245.82 445.13,-223.5 502.96,-208.13"/>
<polygon fill="black" stroke="black" points="503.95,-211.49 512.72,-205.53 502.16,-204.72 503.95,-211.49"/>
<text text-anchor="middle" x="431.9" y="-228.8" font-family="Times,serif" font-size="14.00">4</text>
</g>
<!-- Introducao_aos_Sistemas_Computacionais -->
<g id="node5" class="node">
<title>Introducao_aos_Sistemas_Computacionais</title>
<ellipse fill="none" stroke="black" cx="1109.4" cy="-534" rx="162.27" ry="18"/>
<text text-anchor="middle" x="1109.4" y="-529.8" font-family="Times,serif" font-size="14.00">Introducao_aos_Sistemas_Computacionais</text>
</g>
<!-- Algoritmos_e_Programacao_de_Computadores -->
<g id="node6" class="node">
<title>Algoritmos_e_Programacao_de_Computadores</title>
<ellipse fill="none" stroke="black" cx="750.4" cy="-534" rx="178.67" ry="18"/>
<text text-anchor="middle" x="750.4" y="-529.8" font-family="Times,serif" font-size="14.00">Algoritmos_e_Programacao_de_Computadores</text>
</g>
<!-- Circuitos_Logicos -->
<g id="node7" class="node">
<title>Circuitos_Logicos</title>
<ellipse fill="none" stroke="black" cx="636.4" cy="-448" rx="75.39" ry="18"/>
<text text-anchor="middle" x="636.4" y="-443.8" font-family="Times,serif" font-size="14.00">Circuitos_Logicos</text>
</g>
<!-- Algoritmos_e_Programacao_de_Computadores&#45;&gt;Circuitos_Logicos -->
<g id="edge4" class="edge">
<title>Algoritmos_e_Programacao_de_Computadores&#45;&gt;Circuitos_Logicos</title>
<path fill="none" stroke="black" d="M727.33,-516C709.87,-503.14 685.74,-485.36 666.72,-471.35"/>
<polygon fill="black" stroke="black" points="668.78,-468.52 658.66,-465.4 664.63,-474.15 668.78,-468.52"/>
<text text-anchor="middle" x="703.9" y="-486.8" font-family="Times,serif" font-size="14.00">4</text>
</g>
<!-- Laboratorio_de_Circuitos_Logicos -->
<g id="node8" class="node">
<title>Laboratorio_de_Circuitos_Logicos</title>
<ellipse fill="none" stroke="black" cx="864.4" cy="-448" rx="134.25" ry="18"/>
<text text-anchor="middle" x="864.4" y="-443.8" font-family="Times,serif" font-size="14.00">Laboratorio_de_Circuitos_Logicos</text>
</g>
<!-- Algoritmos_e_Programacao_de_Computadores&#45;&gt;Laboratorio_de_Circuitos_Logicos -->
<g id="edge5" class="edge">
<title>Algoritmos_e_Programacao_de_Computadores&#45;&gt;Laboratorio_de_Circuitos_Logicos</title>
<path fill="none" stroke="black" d="M773.47,-516C790.62,-503.36 814.21,-485.98 833.07,-472.08"/>
<polygon fill="black" stroke="black" points="835.39,-474.72 841.36,-465.97 831.23,-469.09 835.39,-474.72"/>
<text text-anchor="middle" x="817.9" y="-486.8" font-family="Times,serif" font-size="14.00">2</text>
</g>
<!-- Organizacao_e_Arquitetura_de_Computadores -->
<g id="node11" class="node">
<title>Organizacao_e_Arquitetura_de_Computadores</title>
<ellipse fill="none" stroke="black" cx="775.4" cy="-362" rx="176.86" ry="18"/>
<text text-anchor="middle" x="775.4" y="-357.8" font-family="Times,serif" font-size="14.00">Organizacao_e_Arquitetura_de_Computadores</text>
</g>
<!-- Circuitos_Logicos&#45;&gt;Organizacao_e_Arquitetura_de_Computadores -->
<g id="edge6" class="edge">
<title>Circuitos_Logicos&#45;&gt;Organizacao_e_Arquitetura_de_Computadores</title>
<path fill="none" stroke="black" d="M662.87,-431C684.38,-418 714.96,-399.52 738.81,-385.11"/>
<polygon fill="black" stroke="black" points="740.84,-387.97 747.59,-379.8 737.22,-381.98 740.84,-387.97"/>
<text text-anchor="middle" x="717.9" y="-400.8" font-family="Times,serif" font-size="14.00">4</text>
</g>
<!-- Laboratorio_de_Circuitos_Logicos&#45;&gt;Organizacao_e_Arquitetura_de_Computadores -->
<g id="edge7" class="edge">
<title>Laboratorio_de_Circuitos_Logicos&#45;&gt;Organizacao_e_Arquitetura_de_Computadores</title>
<path fill="none" stroke="black" d="M846.39,-430C833.36,-417.7 815.57,-400.91 801.05,-387.22"/>
<polygon fill="black" stroke="black" points="803.05,-384.29 793.38,-379.97 798.25,-389.38 803.05,-384.29"/>
<text text-anchor="middle" x="828.9" y="-400.8" font-family="Times,serif" font-size="14.00">4</text>
</g>
<!-- Informatica_e_Sociedade -->
<g id="node9" class="node">
<title>Informatica_e_Sociedade</title>
<ellipse fill="none" stroke="black" cx="1390.4" cy="-534" rx="100.43" ry="18"/>
<text text-anchor="middle" x="1390.4" y="-529.8" font-family="Times,serif" font-size="14.00">Informatica_e_Sociedade</text>
</g>
<!-- Fundamentos_Teoricos_da_Computacao -->
<g id="node10" class="node">
<title>Fundamentos_Teoricos_da_Computacao</title>
<ellipse fill="none" stroke="black" cx="1663.4" cy="-534" rx="154.28" ry="18"/>
<text text-anchor="middle" x="1663.4" y="-529.8" font-family="Times,serif" font-size="14.00">Fundamentos_Teoricos_da_Computacao</text>
</g>
<!-- Software_Basico -->
<g id="node21" class="node">
<title>Software_Basico</title>
<ellipse fill="none" stroke="black" cx="775.4" cy="-276" rx="70.54" ry="18"/>
<text text-anchor="middle" x="775.4" y="-271.8" font-family="Times,serif" font-size="14.00">Software_Basico</text>
</g>
<!-- Organizacao_e_Arquitetura_de_Computadores&#45;&gt;Software_Basico -->
<g id="edge19" class="edge">
<title>Organizacao_e_Arquitetura_de_Computadores&#45;&gt;Software_Basico</title>
<path fill="none" stroke="black" d="M775.4,-343.6C775.4,-332.26 775.4,-317.23 775.4,-304.32"/>
<polygon fill="black" stroke="black" points="778.9,-304.1 775.4,-294.1 771.9,-304.1 778.9,-304.1"/>
<text text-anchor="middle" x="778.9" y="-314.8" font-family="Times,serif" font-size="14.00">4</text>
</g>
<!-- Introducao_a_Algebra_Linear -->
<g id="node13" class="node">
<title>Introducao_a_Algebra_Linear</title>
<ellipse fill="none" stroke="black" cx="1953.4" cy="-534" rx="117.32" ry="18"/>
<text text-anchor="middle" x="1953.4" y="-529.8" font-family="Times,serif" font-size="14.00">Introducao_a_Algebra_Linear</text>
</g>
<!-- Estrutura_de_Dados -->
<g id="node14" class="node">
<title>Estrutura_de_Dados</title>
<ellipse fill="none" stroke="black" cx="1303.4" cy="-362" rx="82.12" ry="18"/>
<text text-anchor="middle" x="1303.4" y="-357.8" font-family="Times,serif" font-size="14.00">Estrutura_de_Dados</text>
</g>
<!-- Estrutura_de_Dados&#45;&gt;Projeto_e_Analise_de_Algoritmos -->
<g id="edge18" class="edge">
<title>Estrutura_de_Dados&#45;&gt;Projeto_e_Analise_de_Algoritmos</title>
<path fill="none" stroke="black" d="M1224.06,-356.97C1054.73,-348.33 672.11,-328.59 658.4,-326 624.61,-319.61 587.92,-307.5 559.52,-296.91"/>
<polygon fill="black" stroke="black" points="560.43,-293.52 549.84,-293.25 557.95,-300.06 560.43,-293.52"/>
<text text-anchor="middle" x="661.9" y="-314.8" font-family="Times,serif" font-size="14.00">4</text>
</g>
<!-- Tecnicas_de_Programacao_1 -->
<g id="node15" class="node">
<title>Tecnicas_de_Programacao_1</title>
<ellipse fill="none" stroke="black" cx="2486.4" cy="-276" rx="113.7" ry="18"/>
<text text-anchor="middle" x="2486.4" y="-271.8" font-family="Times,serif" font-size="14.00">Tecnicas_de_Programacao_1</text>
</g>
<!-- Estrutura_de_Dados&#45;&gt;Tecnicas_de_Programacao_1 -->
<g id="edge9" class="edge">
<title>Estrutura_de_Dados&#45;&gt;Tecnicas_de_Programacao_1</title>
<path fill="none" stroke="black" d="M1385.33,-359.65C1582.34,-356.13 2078.49,-345.57 2243.4,-326 2302.97,-318.93 2369.71,-305.03 2418.16,-293.84"/>
<polygon fill="black" stroke="black" points="2418.96,-297.24 2427.9,-291.57 2417.37,-290.43 2418.96,-297.24"/>
<text text-anchor="middle" x="2333.9" y="-314.8" font-family="Times,serif" font-size="14.00">4</text>
</g>
<!-- Logica_Computacional_1 -->
<g id="node16" class="node">
<title>Logica_Computacional_1</title>
<ellipse fill="none" stroke="black" cx="1182.4" cy="-276" rx="101.91" ry="18"/>
<text text-anchor="middle" x="1182.4" y="-271.8" font-family="Times,serif" font-size="14.00">Logica_Computacional_1</text>
</g>
<!-- Estrutura_de_Dados&#45;&gt;Logica_Computacional_1 -->
<g id="edge10" class="edge">
<title>Estrutura_de_Dados&#45;&gt;Logica_Computacional_1</title>
<path fill="none" stroke="black" d="M1279.78,-344.6C1261.24,-331.74 1235.24,-313.69 1214.77,-299.47"/>
<polygon fill="black" stroke="black" points="1216.58,-296.47 1206.37,-293.64 1212.59,-302.22 1216.58,-296.47"/>
<text text-anchor="middle" x="1252.9" y="-314.8" font-family="Times,serif" font-size="14.00">4</text>
</g>
<!-- Teoria_e_Aplicacao_de_Grafos -->
<g id="node17" class="node">
<title>Teoria_e_Aplicacao_de_Grafos</title>
<ellipse fill="none" stroke="black" cx="1424.4" cy="-276" rx="122.37" ry="18"/>
<text text-anchor="middle" x="1424.4" y="-271.8" font-family="Times,serif" font-size="14.00">Teoria_e_Aplicacao_de_Grafos</text>
</g>
<!-- Estrutura_de_Dados&#45;&gt;Teoria_e_Aplicacao_de_Grafos -->
<g id="edge11" class="edge">
<title>Estrutura_de_Dados&#45;&gt;Teoria_e_Aplicacao_de_Grafos</title>
<path fill="none" stroke="black" d="M1327.01,-344.6C1345.43,-331.82 1371.21,-313.92 1391.63,-299.75"/>
<polygon fill="black" stroke="black" points="1393.79,-302.51 1400.01,-293.93 1389.8,-296.76 1393.79,-302.51"/>
<text text-anchor="middle" x="1373.9" y="-314.8" font-family="Times,serif" font-size="14.00">4</text>
</g>
<!-- Redes_de_Computadores -->
<g id="node18" class="node">
<title>Redes_de_Computadores</title>
<ellipse fill="none" stroke="black" cx="2720.4" cy="-276" rx="100.48" ry="18"/>
<text text-anchor="middle" x="2720.4" y="-271.8" font-family="Times,serif" font-size="14.00">Redes_de_Computadores</text>
</g>
<!-- Estrutura_de_Dados&#45;&gt;Redes_de_Computadores -->
<g id="edge12" class="edge">
<title>Estrutura_de_Dados&#45;&gt;Redes_de_Computadores</title>
<path fill="none" stroke="black" d="M1385.61,-360.6C1561.31,-359.23 1986.32,-353.14 2341.4,-326 2444.12,-318.15 2561.66,-301.8 2638.26,-290.14"/>
<polygon fill="black" stroke="black" points="2638.97,-293.57 2648.32,-288.6 2637.91,-286.65 2638.97,-293.57"/>
<text text-anchor="middle" x="2479.9" y="-314.8" font-family="Times,serif" font-size="14.00">4</text>
</g>
<!-- Linguagens_de_Programacao -->
<g id="node19" class="node">
<title>Linguagens_de_Programacao</title>
<ellipse fill="none" stroke="black" cx="1680.4" cy="-276" rx="115.42" ry="18"/>
<text text-anchor="middle" x="1680.4" y="-271.8" font-family="Times,serif" font-size="14.00">Linguagens_de_Programacao</text>
</g>
<!-- Estrutura_de_Dados&#45;&gt;Linguagens_de_Programacao -->
<g id="edge13" class="edge">
<title>Estrutura_de_Dados&#45;&gt;Linguagens_de_Programacao</title>
<path fill="none" stroke="black" d="M1359.02,-348.61C1424.75,-333.96 1534.34,-309.54 1606.98,-293.36"/>
<polygon fill="black" stroke="black" points="1607.98,-296.72 1616.98,-291.13 1606.45,-289.89 1607.98,-296.72"/>
<text text-anchor="middle" x="1517.9" y="-314.8" font-family="Times,serif" font-size="14.00">4</text>
</g>
<!-- Introducao_a_Inteligencia_Artificial -->
<g id="node20" class="node">
<title>Introducao_a_Inteligencia_Artificial</title>
<ellipse fill="none" stroke="black" cx="1952.4" cy="-276" rx="139.04" ry="18"/>
<text text-anchor="middle" x="1952.4" y="-271.8" font-family="Times,serif" font-size="14.00">Introducao_a_Inteligencia_Artificial</text>
</g>
<!-- Estrutura_de_Dados&#45;&gt;Introducao_a_Inteligencia_Artificial -->
<g id="edge14" class="edge">
<title>Estrutura_de_Dados&#45;&gt;Introducao_a_Inteligencia_Artificial</title>
<path fill="none" stroke="black" d="M1372.24,-352.09C1485.98,-337.37 1713.85,-307.87 1847.67,-290.56"/>
<polygon fill="black" stroke="black" points="1848.46,-293.98 1857.93,-289.23 1847.56,-287.04 1848.46,-293.98"/>
<text text-anchor="middle" x="1669.9" y="-314.8" font-family="Times,serif" font-size="14.00">4</text>
</g>
<!-- Estrutura_de_Dados&#45;&gt;Software_Basico -->
<g id="edge15" class="edge">
<title>Estrutura_de_Dados&#45;&gt;Software_Basico</title>
<path fill="none" stroke="black" d="M1234.49,-352.02C1146.35,-340.23 989.08,-318.18 855.4,-294 849.34,-292.91 843.05,-291.69 836.77,-290.44"/>
<polygon fill="black" stroke="black" points="837.44,-287 826.95,-288.44 836.05,-293.86 837.44,-287"/>
<text text-anchor="middle" x="1043.9" y="-314.8" font-family="Times,serif" font-size="14.00">4</text>
</g>
<!-- Sistemas_de_Informacao -->
<g id="node22" class="node">
<title>Sistemas_de_Informacao</title>
<ellipse fill="none" stroke="black" cx="963.4" cy="-276" rx="99.49" ry="18"/>
<text text-anchor="middle" x="963.4" y="-271.8" font-family="Times,serif" font-size="14.00">Sistemas_de_Informacao</text>
</g>
<!-- Estrutura_de_Dados&#45;&gt;Sistemas_de_Informacao -->
<g id="edge16" class="edge">
<title>Estrutura_de_Dados&#45;&gt;Sistemas_de_Informacao</title>
<path fill="none" stroke="black" d="M1251.02,-348.06C1191.52,-333.36 1094.32,-309.35 1029.61,-293.36"/>
<polygon fill="black" stroke="black" points="1030.06,-289.87 1019.52,-290.86 1028.38,-296.66 1030.06,-289.87"/>
<text text-anchor="middle" x="1156.9" y="-314.8" font-family="Times,serif" font-size="14.00">4</text>
</g>
<!-- Estrutura_de_Dados&#45;&gt;Computacao_Experimental -->
<g id="edge17" class="edge">
<title>Estrutura_de_Dados&#45;&gt;Computacao_Experimental</title>
<path fill="none" stroke="black" d="M1224.11,-357.11C1086.58,-350.16 814.33,-335.46 771.4,-326 732.79,-317.49 721.54,-315.56 688.4,-294 669.43,-281.66 669.31,-273.03 652.4,-258 635.05,-242.59 614.66,-226.46 598.2,-213.89"/>
<polygon fill="black" stroke="black" points="600.07,-210.91 589.99,-207.66 595.85,-216.49 600.07,-210.91"/>
<text text-anchor="middle" x="691.9" y="-271.8" font-family="Times,serif" font-size="14.00">4</text>
</g>
<!-- Tecnicas_de_programacao_2 -->
<g id="node24" class="node">
<title>Tecnicas_de_programacao_2</title>
<ellipse fill="none" stroke="black" cx="2486.4" cy="-190" rx="113.2" ry="18"/>
<text text-anchor="middle" x="2486.4" y="-185.8" font-family="Times,serif" font-size="14.00">Tecnicas_de_programacao_2</text>
</g>
<!-- Tecnicas_de_Programacao_1&#45;&gt;Tecnicas_de_programacao_2 -->
<g id="edge20" class="edge">
<title>Tecnicas_de_Programacao_1&#45;&gt;Tecnicas_de_programacao_2</title>
<path fill="none" stroke="black" d="M2486.4,-257.6C2486.4,-246.26 2486.4,-231.23 2486.4,-218.32"/>
<polygon fill="black" stroke="black" points="2489.9,-218.1 2486.4,-208.1 2482.9,-218.1 2489.9,-218.1"/>
<text text-anchor="middle" x="2489.9" y="-228.8" font-family="Times,serif" font-size="14.00">4</text>
</g>
<!-- Engenharia_de_Software -->
<g id="node25" class="node">
<title>Engenharia_de_Software</title>
<ellipse fill="none" stroke="black" cx="2255.4" cy="-190" rx="99.47" ry="18"/>
<text text-anchor="middle" x="2255.4" y="-185.8" font-family="Times,serif" font-size="14.00">Engenharia_de_Software</text>
</g>
<!-- Tecnicas_de_Programacao_1&#45;&gt;Engenharia_de_Software -->
<g id="edge21" class="edge">
<title>Tecnicas_de_Programacao_1&#45;&gt;Engenharia_de_Software</title>
<path fill="none" stroke="black" d="M2443.22,-259.3C2404.65,-245.28 2348.09,-224.71 2307.12,-209.81"/>
<polygon fill="black" stroke="black" points="2308.18,-206.47 2297.58,-206.34 2305.78,-213.05 2308.18,-206.47"/>
<text text-anchor="middle" x="2387.9" y="-228.8" font-family="Times,serif" font-size="14.00">4</text>
</g>
<!-- Seguranca_Computacional -->
<g id="node29" class="node">
<title>Seguranca_Computacional</title>
<ellipse fill="none" stroke="black" cx="2722.4" cy="-190" rx="105.28" ry="18"/>
<text text-anchor="middle" x="2722.4" y="-185.8" font-family="Times,serif" font-size="14.00">Seguranca_Computacional</text>
</g>
<!-- Redes_de_Computadores&#45;&gt;Seguranca_Computacional -->
<g id="edge25" class="edge">
<title>Redes_de_Computadores&#45;&gt;Seguranca_Computacional</title>
<path fill="none" stroke="black" d="M2720.81,-257.6C2721.08,-246.26 2721.44,-231.23 2721.75,-218.32"/>
<polygon fill="black" stroke="black" points="2725.25,-218.18 2721.99,-208.1 2718.25,-218.01 2725.25,-218.18"/>
<text text-anchor="middle" x="2724.9" y="-228.8" font-family="Times,serif" font-size="14.00">4</text>
</g>
<!-- Compiladores -->
<g id="node30" class="node">
<title>Compiladores</title>
<ellipse fill="none" stroke="black" cx="1680.4" cy="-190" rx="59.94" ry="18"/>
<text text-anchor="middle" x="1680.4" y="-185.8" font-family="Times,serif" font-size="14.00">Compiladores</text>
</g>
<!-- Linguagens_de_Programacao&#45;&gt;Compiladores -->
<g id="edge26" class="edge">
<title>Linguagens_de_Programacao&#45;&gt;Compiladores</title>
<path fill="none" stroke="black" d="M1680.4,-257.6C1680.4,-246.26 1680.4,-231.23 1680.4,-218.32"/>
<polygon fill="black" stroke="black" points="1683.9,-218.1 1680.4,-208.1 1676.9,-218.1 1683.9,-218.1"/>
<text text-anchor="middle" x="1683.9" y="-228.8" font-family="Times,serif" font-size="14.00">4</text>
</g>
<!-- Software_Basico&#45;&gt;Compiladores -->
<g id="edge28" class="edge">
<title>Software_Basico&#45;&gt;Compiladores</title>
<path fill="none" stroke="black" d="M825.58,-263.31C835.42,-261.31 845.7,-259.42 855.4,-258 1133.87,-217.28 1469.11,-199.65 1611.28,-193.61"/>
<polygon fill="black" stroke="black" points="1611.74,-197.1 1621.59,-193.18 1611.45,-190.1 1611.74,-197.1"/>
<text text-anchor="middle" x="1129.9" y="-228.8" font-family="Times,serif" font-size="14.00">4</text>
</g>
<!-- Programacao_Concorrente -->
<g id="node28" class="node">
<title>Programacao_Concorrente</title>
<ellipse fill="none" stroke="black" cx="2486.4" cy="-104" rx="104.78" ry="18"/>
<text text-anchor="middle" x="2486.4" y="-99.8" font-family="Times,serif" font-size="14.00">Programacao_Concorrente</text>
</g>
<!-- Tecnicas_de_programacao_2&#45;&gt;Programacao_Concorrente -->
<g id="edge24" class="edge">
<title>Tecnicas_de_programacao_2&#45;&gt;Programacao_Concorrente</title>
<path fill="none" stroke="black" d="M2486.4,-171.6C2486.4,-160.26 2486.4,-145.23 2486.4,-132.32"/>
<polygon fill="black" stroke="black" points="2489.9,-132.1 2486.4,-122.1 2482.9,-132.1 2489.9,-132.1"/>
<text text-anchor="middle" x="2489.9" y="-142.8" font-family="Times,serif" font-size="14.00">4</text>
</g>
<!-- Algebra_1 -->
<g id="node26" class="node">
<title>Algebra_1</title>
<ellipse fill="none" stroke="black" cx="2232.4" cy="-362" rx="47.37" ry="18"/>
<text text-anchor="middle" x="2232.4" y="-357.8" font-family="Times,serif" font-size="14.00">Algebra_1</text>
</g>
<!-- Automatos_e_Computabilidade -->
<g id="node27" class="node">
<title>Automatos_e_Computabilidade</title>
<ellipse fill="none" stroke="black" cx="2232.4" cy="-276" rx="122.7" ry="18"/>
<text text-anchor="middle" x="2232.4" y="-271.8" font-family="Times,serif" font-size="14.00">Automatos_e_Computabilidade</text>
</g>
<!-- Algebra_1&#45;&gt;Automatos_e_Computabilidade -->
<g id="edge22" class="edge">
<title>Algebra_1&#45;&gt;Automatos_e_Computabilidade</title>
<path fill="none" stroke="black" d="M2232.4,-343.6C2232.4,-332.26 2232.4,-317.23 2232.4,-304.32"/>
<polygon fill="black" stroke="black" points="2235.9,-304.1 2232.4,-294.1 2228.9,-304.1 2235.9,-304.1"/>
<text text-anchor="middle" x="2235.9" y="-314.8" font-family="Times,serif" font-size="14.00">6</text>
</g>
<!-- Automatos_e_Computabilidade&#45;&gt;Compiladores -->
<g id="edge29" class="edge">
<title>Automatos_e_Computabilidade&#45;&gt;Compiladores</title>
<path fill="none" stroke="black" d="M2150.65,-262.56C2039.38,-245.63 1842.66,-215.69 1742.6,-200.47"/>
<polygon fill="black" stroke="black" points="1743.05,-196.99 1732.64,-198.95 1742,-203.92 1743.05,-196.99"/>
<text text-anchor="middle" x="1992.9" y="-228.8" font-family="Times,serif" font-size="14.00">4</text>
</g>
<!-- Fundamentos_de_Sistemas_Operacionais -->
<g id="node31" class="node">
<title>Fundamentos_de_Sistemas_Operacionais</title>
<ellipse fill="none" stroke="black" cx="2486.4" cy="-18" rx="157.44" ry="18"/>
<text text-anchor="middle" x="2486.4" y="-13.8" font-family="Times,serif" font-size="14.00">Fundamentos_de_Sistemas_Operacionais</text>
</g>
<!-- Programacao_Concorrente&#45;&gt;Fundamentos_de_Sistemas_Operacionais -->
<g id="edge27" class="edge">
<title>Programacao_Concorrente&#45;&gt;Fundamentos_de_Sistemas_Operacionais</title>
<path fill="none" stroke="black" d="M2486.4,-85.6C2486.4,-74.26 2486.4,-59.23 2486.4,-46.32"/>
<polygon fill="black" stroke="black" points="2489.9,-46.1 2486.4,-36.1 2482.9,-46.1 2489.9,-46.1"/>
<text text-anchor="middle" x="2489.9" y="-56.8" font-family="Times,serif" font-size="14.00">4</text>
</g>
<!-- Bancos_de_Dados -->
<g id="node32" class="node">
<title>Bancos_de_Dados</title>
<ellipse fill="none" stroke="black" cx="2164.4" cy="-534" rx="75.86" ry="18"/>
<text text-anchor="middle" x="2164.4" y="-529.8" font-family="Times,serif" font-size="14.00">Bancos_de_Dados</text>
</g>
<!-- Metodologia_Cientifica -->
<g id="node33" class="node">
<title>Metodologia_Cientifica</title>
<ellipse fill="none" stroke="black" cx="2352.4" cy="-534" rx="94.21" ry="18"/>
<text text-anchor="middle" x="2352.4" y="-529.8" font-family="Times,serif" font-size="14.00">Metodologia_Cientifica</text>
</g>
<!-- Topicos_Avancados_em_Computadores -->
<g id="node34" class="node">
<title>Topicos_Avancados_em_Computadores</title>
<ellipse fill="none" stroke="black" cx="2616.4" cy="-534" rx="152.03" ry="18"/>
<text text-anchor="middle" x="2616.4" y="-529.8" font-family="Times,serif" font-size="14.00">Topicos_Avancados_em_Computadores</text>
</g>
</g>
</svg>
