<?xml version="1.0" encoding="UTF-8" standalone="no"?>
<!DOCTYPE svg PUBLIC "-//W3C//DTD SVG 1.1//EN"
 "http://www.w3.org/Graphics/SVG/1.1/DTD/svg11.dtd">
<!-- Generated by graphviz version 2.43.0 (0)
 -->
<!-- Title: G Pages: 1 -->
<svg width="2836pt" height="582pt"
 viewBox="0.00 0.00 2835.79 582.00" xmlns="http://www.w3.org/2000/svg" xmlns:xlink="http://www.w3.org/1999/xlink">
<g id="graph0" class="graph" transform="scale(1 1) rotate(0) translate(4 578)">
<title>G</title>
<polygon fill="white" stroke="transparent" points="-4,4 -4,-578 2831.79,-578 2831.79,4 -4,4"/>
<text text-anchor="middle" x="1413.89" y="-6.8" font-family="Times,serif" font-size="14.00">Dígrafo Curso Ciência da Computação &#45; 2019.2</text>
<!-- Calculo_I -->
<g id="node1" class="node">
<title>Calculo_I</title>
<ellipse fill="none" stroke="black" cx="251.4" cy="-384" rx="44.96" ry="18"/>
<text text-anchor="middle" x="251.4" y="-379.8" font-family="Times,serif" font-size="14.00">Calculo_I</text>
</g>
<!-- Calculo_II -->
<g id="node2" class="node">
<title>Calculo_II</title>
<ellipse fill="none" stroke="black" cx="77.4" cy="-298" rx="47.85" ry="18"/>
<text text-anchor="middle" x="77.4" y="-293.8" font-family="Times,serif" font-size="14.00">Calculo_II</text>
</g>
<!-- Calculo_I&#45;&gt;Calculo_II -->
<g id="edge1" class="edge">
<title>Calculo_I&#45;&gt;Calculo_II</title>
<path fill="none" stroke="black" d="M223.82,-369.69C194.43,-355.5 147.71,-332.94 114.96,-317.14"/>
<polygon fill="black" stroke="black" points="116.23,-313.86 105.7,-312.67 113.19,-320.17 116.23,-313.86"/>
<text text-anchor="middle" x="178.9" y="-336.8" font-family="Times,serif" font-size="14.00">6</text>
</g>
<!-- Probabilidade_e_Estatistica -->
<g id="node3" class="node">
<title>Probabilidade_e_Estatistica</title>
<ellipse fill="none" stroke="black" cx="251.4" cy="-298" rx="108.18" ry="18"/>
<text text-anchor="middle" x="251.4" y="-293.8" font-family="Times,serif" font-size="14.00">Probabilidade_e_Estatistica</text>
</g>
<!-- Calculo_I&#45;&gt;Probabilidade_e_Estatistica -->
<g id="edge2" class="edge">
<title>Calculo_I&#45;&gt;Probabilidade_e_Estatistica</title>
<path fill="none" stroke="black" d="M251.4,-365.6C251.4,-354.26 251.4,-339.23 251.4,-326.32"/>
<polygon fill="black" stroke="black" points="254.9,-326.1 251.4,-316.1 247.9,-326.1 254.9,-326.1"/>
<text text-anchor="middle" x="254.9" y="-336.8" font-family="Times,serif" font-size="14.00">4</text>
</g>
<!-- Projeto_e_Analise_de_Algoritmos -->
<g id="node4" class="node">
<title>Projeto_e_Analise_de_Algoritmos</title>
<ellipse fill="none" stroke="black" cx="510.4" cy="-298" rx="132.83" ry="18"/>
<text text-anchor="middle" x="510.4" y="-293.8" font-family="Times,serif" font-size="14.00">Projeto_e_Analise_de_Algoritmos</text>
</g>
<!-- Calculo_I&#45;&gt;Projeto_e_Analise_de_Algoritmos -->
<g id="edge3" class="edge">
<title>Calculo_I&#45;&gt;Projeto_e_Analise_de_Algoritmos</title>
<path fill="none" stroke="black" d="M285.26,-372.02C327.51,-358.32 400.45,-334.66 451.84,-317.99"/>
<polygon fill="black" stroke="black" points="453.06,-321.28 461.49,-314.86 450.9,-314.62 453.06,-321.28"/>
<text text-anchor="middle" x="400.9" y="-336.8" font-family="Times,serif" font-size="14.00">4</text>
</g>
<!-- Calculo_Numerico -->
<g id="node12" class="node">
<title>Calculo_Numerico</title>
<ellipse fill="none" stroke="black" cx="77.4" cy="-212" rx="77.29" ry="18"/>
<text text-anchor="middle" x="77.4" y="-207.8" font-family="Times,serif" font-size="14.00">Calculo_Numerico</text>
</g>
<!-- Calculo_II&#45;&gt;Calculo_Numerico -->
<g id="edge8" class="edge">
<title>Calculo_II&#45;&gt;Calculo_Numerico</title>
<path fill="none" stroke="black" d="M77.4,-279.6C77.4,-268.26 77.4,-253.23 77.4,-240.32"/>
<polygon fill="black" stroke="black" points="80.9,-240.1 77.4,-230.1 73.9,-240.1 80.9,-240.1"/>
<text text-anchor="middle" x="80.9" y="-250.8" font-family="Times,serif" font-size="14.00">4</text>
</g>
<!-- Computacao_Experimental -->
<g id="node23" class="node">
<title>Computacao_Experimental</title>
<ellipse fill="none" stroke="black" cx="567.4" cy="-212" rx="106.73" ry="18"/>
<text text-anchor="middle" x="567.4" y="-207.8" font-family="Times,serif" font-size="14.00">Computacao_Experimental</text>
</g>
<!-- Probabilidade_e_Estatistica&#45;&gt;Computacao_Experimental -->
<g id="edge23" class="edge">
<title>Probabilidade_e_Estatistica&#45;&gt;Computacao_Experimental</title>
<path fill="none" stroke="black" d="M306.44,-282.37C361.18,-267.82 445.13,-245.5 502.96,-230.13"/>
<polygon fill="black" stroke="black" points="503.95,-233.49 512.72,-227.53 502.16,-226.72 503.95,-233.49"/>
<text text-anchor="middle" x="431.9" y="-250.8" font-family="Times,serif" font-size="14.00">4</text>
</g>
<!-- Introducao_aos_Sistemas_Computacionais -->
<g id="node5" class="node">
<title>Introducao_aos_Sistemas_Computacionais</title>
<ellipse fill="none" stroke="black" cx="1109.4" cy="-556" rx="162.27" ry="18"/>
<text text-anchor="middle" x="1109.4" y="-551.8" font-family="Times,serif" font-size="14.00">Introducao_aos_Sistemas_Computacionais</text>
</g>
<!-- Algoritmos_e_Programacao_de_Computadores -->
<g id="node6" class="node">
<title>Algoritmos_e_Programacao_de_Computadores</title>
<ellipse fill="none" stroke="black" cx="750.4" cy="-556" rx="178.67" ry="18"/>
<text text-anchor="middle" x="750.4" y="-551.8" font-family="Times,serif" font-size="14.00">Algoritmos_e_Programacao_de_Computadores</text>
</g>
<!-- Circuitos_Logicos -->
<g id="node7" class="node">
<title>Circuitos_Logicos</title>
<ellipse fill="none" stroke="black" cx="636.4" cy="-470" rx="75.39" ry="18"/>
<text text-anchor="middle" x="636.4" y="-465.8" font-family="Times,serif" font-size="14.00">Circuitos_Logicos</text>
</g>
<!-- Algoritmos_e_Programacao_de_Computadores&#45;&gt;Circuitos_Logicos -->
<g id="edge4" class="edge">
<title>Algoritmos_e_Programacao_de_Computadores&#45;&gt;Circuitos_Logicos</title>
<path fill="none" stroke="black" d="M727.33,-538C709.87,-525.14 685.74,-507.36 666.72,-493.35"/>
<polygon fill="black" stroke="black" points="668.78,-490.52 658.66,-487.4 664.63,-496.15 668.78,-490.52"/>
<text text-anchor="middle" x="703.9" y="-508.8" font-family="Times,serif" font-size="14.00">4</text>
</g>
<!-- Laboratorio_de_Circuitos_Logicos -->
<g id="node8" class="node">
<title>Laboratorio_de_Circuitos_Logicos</title>
<ellipse fill="none" stroke="black" cx="864.4" cy="-470" rx="134.25" ry="18"/>
<text text-anchor="middle" x="864.4" y="-465.8" font-family="Times,serif" font-size="14.00">Laboratorio_de_Circuitos_Logicos</text>
</g>
<!-- Algoritmos_e_Programacao_de_Computadores&#45;&gt;Laboratorio_de_Circuitos_Logicos -->
<g id="edge5" class="edge">
<title>Algoritmos_e_Programacao_de_Computadores&#45;&gt;Laboratorio_de_Circuitos_Logicos</title>
<path fill="none" stroke="black" d="M773.47,-538C790.62,-525.36 814.21,-507.98 833.07,-494.08"/>
<polygon fill="black" stroke="black" points="835.39,-496.72 841.36,-487.97 831.23,-491.09 835.39,-496.72"/>
<text text-anchor="middle" x="817.9" y="-508.8" font-family="Times,serif" font-size="14.00">2</text>
</g>
<!-- Organizacao_e_Arquitetura_de_Computadores -->
<g id="node11" class="node">
<title>Organizacao_e_Arquitetura_de_Computadores</title>
<ellipse fill="none" stroke="black" cx="775.4" cy="-384" rx="176.86" ry="18"/>
<text text-anchor="middle" x="775.4" y="-379.8" font-family="Times,serif" font-size="14.00">Organizacao_e_Arquitetura_de_Computadores</text>
</g>
<!-- Circuitos_Logicos&#45;&gt;Organizacao_e_Arquitetura_de_Computadores -->
<g id="edge6" class="edge">
<title>Circuitos_Logicos&#45;&gt;Organizacao_e_Arquitetura_de_Computadores</title>
<path fill="none" stroke="black" d="M662.87,-453C684.38,-440 714.96,-421.52 738.81,-407.11"/>
<polygon fill="black" stroke="black" points="740.84,-409.97 747.59,-401.8 737.22,-403.98 740.84,-409.97"/>
<text text-anchor="middle" x="717.9" y="-422.8" font-family="Times,serif" font-size="14.00">4</text>
</g>
<!-- Laboratorio_de_Circuitos_Logicos&#45;&gt;Organizacao_e_Arquitetura_de_Computadores -->
<g id="edge7" class="edge">
<title>Laboratorio_de_Circuitos_Logicos&#45;&gt;Organizacao_e_Arquitetura_de_Computadores</title>
<path fill="none" stroke="black" d="M846.39,-452C833.36,-439.7 815.57,-422.91 801.05,-409.22"/>
<polygon fill="black" stroke="black" points="803.05,-406.29 793.38,-401.97 798.25,-411.38 803.05,-406.29"/>
<text text-anchor="middle" x="828.9" y="-422.8" font-family="Times,serif" font-size="14.00">4</text>
</g>
<!-- Informatica_e_Sociedade -->
<g id="node9" class="node">
<title>Informatica_e_Sociedade</title>
<ellipse fill="none" stroke="black" cx="1390.4" cy="-556" rx="100.43" ry="18"/>
<text text-anchor="middle" x="1390.4" y="-551.8" font-family="Times,serif" font-size="14.00">Informatica_e_Sociedade</text>
</g>
<!-- Fundamentos_Teoricos_da_Computacao -->
<g id="node10" class="node">
<title>Fundamentos_Teoricos_da_Computacao</title>
<ellipse fill="none" stroke="black" cx="1663.4" cy="-556" rx="154.28" ry="18"/>
<text text-anchor="middle" x="1663.4" y="-551.8" font-family="Times,serif" font-size="14.00">Fundamentos_Teoricos_da_Computacao</text>
</g>
<!-- Software_Basico -->
<g id="node21" class="node">
<title>Software_Basico</title>
<ellipse fill="none" stroke="black" cx="775.4" cy="-298" rx="70.54" ry="18"/>
<text text-anchor="middle" x="775.4" y="-293.8" font-family="Times,serif" font-size="14.00">Software_Basico</text>
</g>
<!-- Organizacao_e_Arquitetura_de_Computadores&#45;&gt;Software_Basico -->
<g id="edge19" class="edge">
<title>Organizacao_e_Arquitetura_de_Computadores&#45;&gt;Software_Basico</title>
<path fill="none" stroke="black" d="M775.4,-365.6C775.4,-354.26 775.4,-339.23 775.4,-326.32"/>
<polygon fill="black" stroke="black" points="778.9,-326.1 775.4,-316.1 771.9,-326.1 778.9,-326.1"/>
<text text-anchor="middle" x="778.9" y="-336.8" font-family="Times,serif" font-size="14.00">4</text>
</g>
<!-- Introducao_a_Algebra_Linear -->
<g id="node13" class="node">
<title>Introducao_a_Algebra_Linear</title>
<ellipse fill="none" stroke="black" cx="1953.4" cy="-556" rx="117.32" ry="18"/>
<text text-anchor="middle" x="1953.4" y="-551.8" font-family="Times,serif" font-size="14.00">Introducao_a_Algebra_Linear</text>
</g>
<!-- Estrutura_de_Dados -->
<g id="node14" class="node">
<title>Estrutura_de_Dados</title>
<ellipse fill="none" stroke="black" cx="1303.4" cy="-384" rx="82.12" ry="18"/>
<text text-anchor="middle" x="1303.4" y="-379.8" font-family="Times,serif" font-size="14.00">Estrutura_de_Dados</text>
</g>
<!-- Estrutura_de_Dados&#45;&gt;Projeto_e_Analise_de_Algoritmos -->
<g id="edge18" class="edge">
<title>Estrutura_de_Dados&#45;&gt;Projeto_e_Analise_de_Algoritmos</title>
<path fill="none" stroke="black" d="M1224.06,-378.97C1054.73,-370.33 672.11,-350.59 658.4,-348 624.61,-341.61 587.92,-329.5 559.52,-318.91"/>
<polygon fill="black" stroke="black" points="560.43,-315.52 549.84,-315.25 557.95,-322.06 560.43,-315.52"/>
<text text-anchor="middle" x="661.9" y="-336.8" font-family="Times,serif" font-size="14.00">4</text>
</g>
<!-- Tecnicas_de_Programacao_1 -->
<g id="node15" class="node">
<title>Tecnicas_de_Programacao_1</title>
<ellipse fill="none" stroke="black" cx="2486.4" cy="-298" rx="113.7" ry="18"/>
<text text-anchor="middle" x="2486.4" y="-293.8" font-family="Times,serif" font-size="14.00">Tecnicas_de_Programacao_1</text>
</g>
<!-- Estrutura_de_Dados&#45;&gt;Tecnicas_de_Programacao_1 -->
<g id="edge9" class="edge">
<title>Estrutura_de_Dados&#45;&gt;Tecnicas_de_Programacao_1</title>
<path fill="none" stroke="black" d="M1385.33,-381.65C1582.34,-378.13 2078.49,-367.57 2243.4,-348 2302.97,-340.93 2369.71,-327.03 2418.16,-315.84"/>
<polygon fill="black" stroke="black" points="2418.96,-319.24 2427.9,-313.57 2417.37,-312.43 2418.96,-319.24"/>
<text text-anchor="middle" x="2333.9" y="-336.8" font-family="Times,serif" font-size="14.00">4</text>
</g>
<!-- Logica_Computacional_1 -->
<g id="node16" class="node">
<title>Logica_Computacional_1</title>
<ellipse fill="none" stroke="black" cx="1182.4" cy="-298" rx="101.91" ry="18"/>
<text text-anchor="middle" x="1182.4" y="-293.8" font-family="Times,serif" font-size="14.00">Logica_Computacional_1</text>
</g>
<!-- Estrutura_de_Dados&#45;&gt;Logica_Computacional_1 -->
<g id="edge10" class="edge">
<title>Estrutura_de_Dados&#45;&gt;Logica_Computacional_1</title>
<path fill="none" stroke="black" d="M1279.78,-366.6C1261.24,-353.74 1235.24,-335.69 1214.77,-321.47"/>
<polygon fill="black" stroke="black" points="1216.58,-318.47 1206.37,-315.64 1212.59,-324.22 1216.58,-318.47"/>
<text text-anchor="middle" x="1252.9" y="-336.8" font-family="Times,serif" font-size="14.00">4</text>
</g>
<!-- Teoria_e_Aplicacao_de_Grafos -->
<g id="node17" class="node">
<title>Teoria_e_Aplicacao_de_Grafos</title>
<ellipse fill="none" stroke="black" cx="1424.4" cy="-298" rx="122.37" ry="18"/>
<text text-anchor="middle" x="1424.4" y="-293.8" font-family="Times,serif" font-size="14.00">Teoria_e_Aplicacao_de_Grafos</text>
</g>
<!-- Estrutura_de_Dados&#45;&gt;Teoria_e_Aplicacao_de_Grafos -->
<g id="edge11" class="edge">
<title>Estrutura_de_Dados&#45;&gt;Teoria_e_Aplicacao_de_Grafos</title>
<path fill="none" stroke="black" d="M1327.01,-366.6C1345.43,-353.82 1371.21,-335.92 1391.63,-321.75"/>
<polygon fill="black" stroke="black" points="1393.79,-324.51 1400.01,-315.93 1389.8,-318.76 1393.79,-324.51"/>
<text text-anchor="middle" x="1373.9" y="-336.8" font-family="Times,serif" font-size="14.00">4</text>
</g>
<!-- Redes_de_Computadores -->
<g id="node18" class="node">
<title>Redes_de_Computadores</title>
<ellipse fill="none" stroke="black" cx="2720.4" cy="-298" rx="100.48" ry="18"/>
<text text-anchor="middle" x="2720.4" y="-293.8" font-family="Times,serif" font-size="14.00">Redes_de_Computadores</text>
</g>
<!-- Estrutura_de_Dados&#45;&gt;Redes_de_Computadores -->
<g id="edge12" class="edge">
<title>Estrutura_de_Dados&#45;&gt;Redes_de_Computadores</title>
<path fill="none" stroke="black" d="M1385.61,-382.6C1561.31,-381.23 1986.32,-375.14 2341.4,-348 2444.12,-340.15 2561.66,-323.8 2638.26,-312.14"/>
<polygon fill="black" stroke="black" points="2638.97,-315.57 2648.32,-310.6 2637.91,-308.65 2638.97,-315.57"/>
<text text-anchor="middle" x="2479.9" y="-336.8" font-family="Times,serif" font-size="14.00">4</text>
</g>
<!-- Linguagens_de_Programacao -->
<g id="node19" class="node">
<title>Linguagens_de_Programacao</title>
<ellipse fill="none" stroke="black" cx="1680.4" cy="-298" rx="115.42" ry="18"/>
<text text-anchor="middle" x="1680.4" y="-293.8" font-family="Times,serif" font-size="14.00">Linguagens_de_Programacao</text>
</g>
<!-- Estrutura_de_Dados&#45;&gt;Linguagens_de_Programacao -->
<g id="edge13" class="edge">
<title>Estrutura_de_Dados&#45;&gt;Linguagens_de_Programacao</title>
<path fill="none" stroke="black" d="M1359.02,-370.61C1424.75,-355.96 1534.34,-331.54 1606.98,-315.36"/>
<polygon fill="black" stroke="black" points="1607.98,-318.72 1616.98,-313.13 1606.45,-311.89 1607.98,-318.72"/>
<text text-anchor="middle" x="1517.9" y="-336.8" font-family="Times,serif" font-size="14.00">4</text>
</g>
<!-- Introducao_a_Inteligencia_Artificial -->
<g id="node20" class="node">
<title>Introducao_a_Inteligencia_Artificial</title>
<ellipse fill="none" stroke="black" cx="1952.4" cy="-298" rx="139.04" ry="18"/>
<text text-anchor="middle" x="1952.4" y="-293.8" font-family="Times,serif" font-size="14.00">Introducao_a_Inteligencia_Artificial</text>
</g>
<!-- Estrutura_de_Dados&#45;&gt;Introducao_a_Inteligencia_Artificial -->
<g id="edge14" class="edge">
<title>Estrutura_de_Dados&#45;&gt;Introducao_a_Inteligencia_Artificial</title>
<path fill="none" stroke="black" d="M1372.24,-374.09C1485.98,-359.37 1713.85,-329.87 1847.67,-312.56"/>
<polygon fill="black" stroke="black" points="1848.46,-315.98 1857.93,-311.23 1847.56,-309.04 1848.46,-315.98"/>
<text text-anchor="middle" x="1669.9" y="-336.8" font-family="Times,serif" font-size="14.00">4</text>
</g>
<!-- Estrutura_de_Dados&#45;&gt;Software_Basico -->
<g id="edge15" class="edge">
<title>Estrutura_de_Dados&#45;&gt;Software_Basico</title>
<path fill="none" stroke="black" d="M1234.49,-374.02C1146.35,-362.23 989.08,-340.18 855.4,-316 849.34,-314.91 843.05,-313.69 836.77,-312.44"/>
<polygon fill="black" stroke="black" points="837.44,-309 826.95,-310.44 836.05,-315.86 837.44,-309"/>
<text text-anchor="middle" x="1043.9" y="-336.8" font-family="Times,serif" font-size="14.00">4</text>
</g>
<!-- Sistemas_de_Informacao -->
<g id="node22" class="node">
<title>Sistemas_de_Informacao</title>
<ellipse fill="none" stroke="black" cx="963.4" cy="-298" rx="99.49" ry="18"/>
<text text-anchor="middle" x="963.4" y="-293.8" font-family="Times,serif" font-size="14.00">Sistemas_de_Informacao</text>
</g>
<!-- Estrutura_de_Dados&#45;&gt;Sistemas_de_Informacao -->
<g id="edge16" class="edge">
<title>Estrutura_de_Dados&#45;&gt;Sistemas_de_Informacao</title>
<path fill="none" stroke="black" d="M1251.02,-370.06C1191.52,-355.36 1094.32,-331.35 1029.61,-315.36"/>
<polygon fill="black" stroke="black" points="1030.06,-311.87 1019.52,-312.86 1028.38,-318.66 1030.06,-311.87"/>
<text text-anchor="middle" x="1156.9" y="-336.8" font-family="Times,serif" font-size="14.00">4</text>
</g>
<!-- Estrutura_de_Dados&#45;&gt;Computacao_Experimental -->
<g id="edge17" class="edge">
<title>Estrutura_de_Dados&#45;&gt;Computacao_Experimental</title>
<path fill="none" stroke="black" d="M1224.11,-379.11C1086.58,-372.16 814.33,-357.46 771.4,-348 732.79,-339.49 721.54,-337.56 688.4,-316 669.43,-303.66 669.31,-295.03 652.4,-280 635.05,-264.59 614.66,-248.46 598.2,-235.89"/>
<polygon fill="black" stroke="black" points="600.07,-232.91 589.99,-229.66 595.85,-238.49 600.07,-232.91"/>
<text text-anchor="middle" x="691.9" y="-293.8" font-family="Times,serif" font-size="14.00">4</text>
</g>
<!-- Tecnicas_de_programacao_2 -->
<g id="node24" class="node">
<title>Tecnicas_de_programacao_2</title>
<ellipse fill="none" stroke="black" cx="2486.4" cy="-212" rx="113.2" ry="18"/>
<text text-anchor="middle" x="2486.4" y="-207.8" font-family="Times,serif" font-size="14.00">Tecnicas_de_programacao_2</text>
</g>
<!-- Tecnicas_de_Programacao_1&#45;&gt;Tecnicas_de_programacao_2 -->
<g id="edge20" class="edge">
<title>Tecnicas_de_Programacao_1&#45;&gt;Tecnicas_de_programacao_2</title>
<path fill="none" stroke="black" d="M2486.4,-279.6C2486.4,-268.26 2486.4,-253.23 2486.4,-240.32"/>
<polygon fill="black" stroke="black" points="2489.9,-240.1 2486.4,-230.1 2482.9,-240.1 2489.9,-240.1"/>
<text text-anchor="middle" x="2489.9" y="-250.8" font-family="Times,serif" font-size="14.00">4</text>
</g>
<!-- Engenharia_de_Software -->
<g id="node25" class="node">
<title>Engenharia_de_Software</title>
<ellipse fill="none" stroke="black" cx="2255.4" cy="-212" rx="99.47" ry="18"/>
<text text-anchor="middle" x="2255.4" y="-207.8" font-family="Times,serif" font-size="14.00">Engenharia_de_Software</text>
</g>
<!-- Tecnicas_de_Programacao_1&#45;&gt;Engenharia_de_Software -->
<g id="edge21" class="edge">
<title>Tecnicas_de_Programacao_1&#45;&gt;Engenharia_de_Software</title>
<path fill="none" stroke="black" d="M2443.22,-281.3C2404.65,-267.28 2348.09,-246.71 2307.12,-231.81"/>
<polygon fill="black" stroke="black" points="2308.18,-228.47 2297.58,-228.34 2305.78,-235.05 2308.18,-228.47"/>
<text text-anchor="middle" x="2387.9" y="-250.8" font-family="Times,serif" font-size="14.00">4</text>
</g>
<!-- Seguranca_Computacional -->
<g id="node29" class="node">
<title>Seguranca_Computacional</title>
<ellipse fill="none" stroke="black" cx="2722.4" cy="-212" rx="105.28" ry="18"/>
<text text-anchor="middle" x="2722.4" y="-207.8" font-family="Times,serif" font-size="14.00">Seguranca_Computacional</text>
</g>
<!-- Redes_de_Computadores&#45;&gt;Seguranca_Computacional -->
<g id="edge25" class="edge">
<title>Redes_de_Computadores&#45;&gt;Seguranca_Computacional</title>
<path fill="none" stroke="black" d="M2720.81,-279.6C2721.08,-268.26 2721.44,-253.23 2721.75,-240.32"/>
<polygon fill="black" stroke="black" points="2725.25,-240.18 2721.99,-230.1 2718.25,-240.01 2725.25,-240.18"/>
<text text-anchor="middle" x="2724.9" y="-250.8" font-family="Times,serif" font-size="14.00">4</text>
</g>
<!-- Compiladores -->
<g id="node30" class="node">
<title>Compiladores</title>
<ellipse fill="none" stroke="black" cx="1680.4" cy="-212" rx="59.94" ry="18"/>
<text text-anchor="middle" x="1680.4" y="-207.8" font-family="Times,serif" font-size="14.00">Compiladores</text>
</g>
<!-- Linguagens_de_Programacao&#45;&gt;Compiladores -->
<g id="edge26" class="edge">
<title>Linguagens_de_Programacao&#45;&gt;Compiladores</title>
<path fill="none" stroke="black" d="M1680.4,-279.6C1680.4,-268.26 1680.4,-253.23 1680.4,-240.32"/>
<polygon fill="black" stroke="black" points="1683.9,-240.1 1680.4,-230.1 1676.9,-240.1 1683.9,-240.1"/>
<text text-anchor="middle" x="1683.9" y="-250.8" font-family="Times,serif" font-size="14.00">4</text>
</g>
<!-- Software_Basico&#45;&gt;Compiladores -->
<g id="edge28" class="edge">
<title>Software_Basico&#45;&gt;Compiladores</title>
<path fill="none" stroke="black" d="M825.58,-285.31C835.42,-283.31 845.7,-281.42 855.4,-280 1133.87,-239.28 1469.11,-221.65 1611.28,-215.61"/>
<polygon fill="black" stroke="black" points="1611.74,-219.1 1621.59,-215.18 1611.45,-212.1 1611.74,-219.1"/>
<text text-anchor="middle" x="1129.9" y="-250.8" font-family="Times,serif" font-size="14.00">4</text>
</g>
<!-- Programacao_Concorrente -->
<g id="node28" class="node">
<title>Programacao_Concorrente</title>
<ellipse fill="none" stroke="black" cx="2486.4" cy="-126" rx="104.78" ry="18"/>
<text text-anchor="middle" x="2486.4" y="-121.8" font-family="Times,serif" font-size="14.00">Programacao_Concorrente</text>
</g>
<!-- Tecnicas_de_programacao_2&#45;&gt;Programacao_Concorrente -->
<g id="edge24" class="edge">
<title>Tecnicas_de_programacao_2&#45;&gt;Programacao_Concorrente</title>
<path fill="none" stroke="black" d="M2486.4,-193.6C2486.4,-182.26 2486.4,-167.23 2486.4,-154.32"/>
<polygon fill="black" stroke="black" points="2489.9,-154.1 2486.4,-144.1 2482.9,-154.1 2489.9,-154.1"/>
<text text-anchor="middle" x="2489.9" y="-164.8" font-family="Times,serif" font-size="14.00">4</text>
</g>
<!-- Algebra_1 -->
<g id="node26" class="node">
<title>Algebra_1</title>
<ellipse fill="none" stroke="black" cx="2232.4" cy="-384" rx="47.37" ry="18"/>
<text text-anchor="middle" x="2232.4" y="-379.8" font-family="Times,serif" font-size="14.00">Algebra_1</text>
</g>
<!-- Automatos_e_Computabilidade -->
<g id="node27" class="node">
<title>Automatos_e_Computabilidade</title>
<ellipse fill="none" stroke="black" cx="2232.4" cy="-298" rx="122.7" ry="18"/>
<text text-anchor="middle" x="2232.4" y="-293.8" font-family="Times,serif" font-size="14.00">Automatos_e_Computabilidade</text>
</g>
<!-- Algebra_1&#45;&gt;Automatos_e_Computabilidade -->
<g id="edge22" class="edge">
<title>Algebra_1&#45;&gt;Automatos_e_Computabilidade</title>
<path fill="none" stroke="black" d="M2232.4,-365.6C2232.4,-354.26 2232.4,-339.23 2232.4,-326.32"/>
<polygon fill="black" stroke="black" points="2235.9,-326.1 2232.4,-316.1 2228.9,-326.1 2235.9,-326.1"/>
<text text-anchor="middle" x="2235.9" y="-336.8" font-family="Times,serif" font-size="14.00">6</text>
</g>
<!-- Automatos_e_Computabilidade&#45;&gt;Compiladores -->
<g id="edge29" class="edge">
<title>Automatos_e_Computabilidade&#45;&gt;Compiladores</title>
<path fill="none" stroke="black" d="M2150.65,-284.56C2039.38,-267.63 1842.66,-237.69 1742.6,-222.47"/>
<polygon fill="black" stroke="black" points="1743.05,-218.99 1732.64,-220.95 1742,-225.92 1743.05,-218.99"/>
<text text-anchor="middle" x="1992.9" y="-250.8" font-family="Times,serif" font-size="14.00">4</text>
</g>
<!-- Fundamentos_de_Sistemas_Operacionais -->
<g id="node31" class="node">
<title>Fundamentos_de_Sistemas_Operacionais</title>
<ellipse fill="none" stroke="black" cx="2486.4" cy="-40" rx="157.44" ry="18"/>
<text text-anchor="middle" x="2486.4" y="-35.8" font-family="Times,serif" font-size="14.00">Fundamentos_de_Sistemas_Operacionais</text>
</g>
<!-- Programacao_Concorrente&#45;&gt;Fundamentos_de_Sistemas_Operacionais -->
<g id="edge27" class="edge">
<title>Programacao_Concorrente&#45;&gt;Fundamentos_de_Sistemas_Operacionais</title>
<path fill="none" stroke="black" d="M2486.4,-107.6C2486.4,-96.26 2486.4,-81.23 2486.4,-68.32"/>
<polygon fill="black" stroke="black" points="2489.9,-68.1 2486.4,-58.1 2482.9,-68.1 2489.9,-68.1"/>
<text text-anchor="middle" x="2489.9" y="-78.8" font-family="Times,serif" font-size="14.00">4</text>
</g>
<!-- Bancos_de_Dados -->
<g id="node32" class="node">
<title>Bancos_de_Dados</title>
<ellipse fill="none" stroke="black" cx="2164.4" cy="-556" rx="75.86" ry="18"/>
<text text-anchor="middle" x="2164.4" y="-551.8" font-family="Times,serif" font-size="14.00">Bancos_de_Dados</text>
</g>
<!-- Metodologia_Cientifica -->
<g id="node33" class="node">
<title>Metodologia_Cientifica</title>
<ellipse fill="none" stroke="black" cx="2352.4" cy="-556" rx="94.21" ry="18"/>
<text text-anchor="middle" x="2352.4" y="-551.8" font-family="Times,serif" font-size="14.00">Metodologia_Cientifica</text>
</g>
<!-- Topicos_Avancados_em_Computadores -->
<g id="node34" class="node">
<title>Topicos_Avancados_em_Computadores</title>
<ellipse fill="none" stroke="black" cx="2616.4" cy="-556" rx="152.03" ry="18"/>
<text text-anchor="middle" x="2616.4" y="-551.8" font-family="Times,serif" font-size="14.00">Topicos_Avancados_em_Computadores</text>
</g>
</g>
</svg>
