<?xml version="1.0" encoding="UTF-8" standalone="no"?>
<!DOCTYPE svg PUBLIC "-//W3C//DTD SVG 1.1//EN"
 "http://www.w3.org/Graphics/SVG/1.1/DTD/svg11.dtd">
<!-- Generated by graphviz version 2.43.0 (0)
 -->
<!-- Title: G Pages: 1 -->
<svg width="1124pt" height="839pt"
 viewBox="0.00 0.00 1123.63 839.03" xmlns="http://www.w3.org/2000/svg" xmlns:xlink="http://www.w3.org/1999/xlink">
<g id="graph0" class="graph" transform="scale(1 1) rotate(0) translate(4 835.03)">
<title>G</title>
<polygon fill="white" stroke="transparent" points="-4,4 -4,-835.03 1119.63,-835.03 1119.63,4 -4,4"/>
<text text-anchor="middle" x="557.81" y="-6.8" font-family="Times,serif" font-size="14.00">Dígrafo Curso Ciência da Computação &#45; 2019.2</text>
<!-- 113034 -->
<g id="node1" class="node">
<title>113034</title>
<ellipse fill="none" stroke="black" cx="127.31" cy="-548.82" rx="36.13" ry="36.13"/>
<text text-anchor="middle" x="127.31" y="-544.62" font-family="Times,serif" font-size="14.00">113034</text>
</g>
<!-- 113042 -->
<g id="node2" class="node">
<title>113042</title>
<ellipse fill="none" stroke="black" cx="36.31" cy="-426.19" rx="36.13" ry="36.13"/>
<text text-anchor="middle" x="36.31" y="-421.99" font-family="Times,serif" font-size="14.00">113042</text>
</g>
<!-- 113034&#45;&gt;113042 -->
<g id="edge1" class="edge">
<title>113034&#45;&gt;113042</title>
<path fill="none" stroke="black" d="M105.75,-519.23C93.28,-502.71 77.46,-481.74 64.08,-464"/>
<polygon fill="black" stroke="black" points="66.54,-461.45 57.72,-455.58 60.95,-465.67 66.54,-461.45"/>
<text text-anchor="middle" x="88.81" y="-483.31" font-family="Times,serif" font-size="14.00">6</text>
</g>
<!-- 115045 -->
<g id="node3" class="node">
<title>115045</title>
<ellipse fill="none" stroke="black" cx="127.31" cy="-426.19" rx="36.13" ry="36.13"/>
<text text-anchor="middle" x="127.31" y="-421.99" font-family="Times,serif" font-size="14.00">115045</text>
</g>
<!-- 113034&#45;&gt;115045 -->
<g id="edge2" class="edge">
<title>113034&#45;&gt;115045</title>
<path fill="none" stroke="black" d="M127.31,-512.28C127.31,-500 127.31,-486.05 127.31,-473.06"/>
<polygon fill="black" stroke="black" points="130.81,-472.9 127.31,-462.9 123.81,-472.9 130.81,-472.9"/>
<text text-anchor="middle" x="130.81" y="-483.31" font-family="Times,serif" font-size="14.00">4</text>
</g>
<!-- 117536 -->
<g id="node4" class="node">
<title>117536</title>
<ellipse fill="none" stroke="black" cx="218.31" cy="-426.19" rx="36.13" ry="36.13"/>
<text text-anchor="middle" x="218.31" y="-421.99" font-family="Times,serif" font-size="14.00">117536</text>
</g>
<!-- 113034&#45;&gt;117536 -->
<g id="edge3" class="edge">
<title>113034&#45;&gt;117536</title>
<path fill="none" stroke="black" d="M148.88,-519.23C161.35,-502.71 177.16,-481.74 190.55,-464"/>
<polygon fill="black" stroke="black" points="193.67,-465.67 196.9,-455.58 188.09,-461.45 193.67,-465.67"/>
<text text-anchor="middle" x="179.81" y="-483.31" font-family="Times,serif" font-size="14.00">4</text>
</g>
<!-- 113417 -->
<g id="node12" class="node">
<title>113417</title>
<ellipse fill="none" stroke="black" cx="36.31" cy="-303.57" rx="36.13" ry="36.13"/>
<text text-anchor="middle" x="36.31" y="-299.37" font-family="Times,serif" font-size="14.00">113417</text>
</g>
<!-- 113042&#45;&gt;113417 -->
<g id="edge8" class="edge">
<title>113042&#45;&gt;113417</title>
<path fill="none" stroke="black" d="M36.31,-389.65C36.31,-377.37 36.31,-363.43 36.31,-350.44"/>
<polygon fill="black" stroke="black" points="39.81,-350.27 36.31,-340.27 32.81,-350.27 39.81,-350.27"/>
<text text-anchor="middle" x="39.81" y="-360.68" font-family="Times,serif" font-size="14.00">4</text>
</g>
<!-- 117943 -->
<g id="node23" class="node">
<title>117943</title>
<ellipse fill="none" stroke="black" cx="243.31" cy="-303.57" rx="36.13" ry="36.13"/>
<text text-anchor="middle" x="243.31" y="-299.37" font-family="Times,serif" font-size="14.00">117943</text>
</g>
<!-- 115045&#45;&gt;117943 -->
<g id="edge23" class="edge">
<title>115045&#45;&gt;117943</title>
<path fill="none" stroke="black" d="M152.2,-399.32C169.48,-381.35 192.65,-357.25 211.3,-337.85"/>
<polygon fill="black" stroke="black" points="214.06,-340.04 218.47,-330.4 209.02,-335.18 214.06,-340.04"/>
<text text-anchor="middle" x="192.81" y="-360.68" font-family="Times,serif" font-size="14.00">4</text>
</g>
<!-- 113468 -->
<g id="node5" class="node">
<title>113468</title>
<ellipse fill="none" stroke="black" cx="435.31" cy="-794.72" rx="36.13" ry="36.13"/>
<text text-anchor="middle" x="435.31" y="-790.52" font-family="Times,serif" font-size="14.00">113468</text>
</g>
<!-- 113476 -->
<g id="node6" class="node">
<title>113476</title>
<ellipse fill="none" stroke="black" cx="344.31" cy="-794.72" rx="36.13" ry="36.13"/>
<text text-anchor="middle" x="344.31" y="-790.52" font-family="Times,serif" font-size="14.00">113476</text>
</g>
<!-- 129011 -->
<g id="node7" class="node">
<title>129011</title>
<ellipse fill="none" stroke="black" cx="299.31" cy="-671.77" rx="36.13" ry="36.13"/>
<text text-anchor="middle" x="299.31" y="-667.57" font-family="Times,serif" font-size="14.00">129011</text>
</g>
<!-- 113476&#45;&gt;129011 -->
<g id="edge4" class="edge">
<title>113476&#45;&gt;129011</title>
<path fill="none" stroke="black" d="M331.9,-760.35C326.73,-746.47 320.68,-730.19 315.19,-715.45"/>
<polygon fill="black" stroke="black" points="318.46,-714.18 311.69,-706.03 311.9,-716.63 318.46,-714.18"/>
<text text-anchor="middle" x="326.81" y="-729.21" font-family="Times,serif" font-size="14.00">4</text>
</g>
<!-- 129020 -->
<g id="node8" class="node">
<title>129020</title>
<ellipse fill="none" stroke="black" cx="390.31" cy="-671.77" rx="36.77" ry="36.77"/>
<text text-anchor="middle" x="390.31" y="-667.57" font-family="Times,serif" font-size="14.00">129020</text>
</g>
<!-- 113476&#45;&gt;129020 -->
<g id="edge5" class="edge">
<title>113476&#45;&gt;129020</title>
<path fill="none" stroke="black" d="M357,-760.35C362.24,-746.58 368.37,-730.46 373.94,-715.82"/>
<polygon fill="black" stroke="black" points="377.22,-717.04 377.5,-706.45 370.68,-714.55 377.22,-717.04"/>
<text text-anchor="middle" x="372.81" y="-729.21" font-family="Times,serif" font-size="14.00">2</text>
</g>
<!-- 116394 -->
<g id="node11" class="node">
<title>116394</title>
<ellipse fill="none" stroke="black" cx="351.31" cy="-548.82" rx="36.13" ry="36.13"/>
<text text-anchor="middle" x="351.31" y="-544.62" font-family="Times,serif" font-size="14.00">116394</text>
</g>
<!-- 129011&#45;&gt;116394 -->
<g id="edge6" class="edge">
<title>129011&#45;&gt;116394</title>
<path fill="none" stroke="black" d="M313.39,-638.04C319.45,-623.92 326.63,-607.23 333.1,-592.18"/>
<polygon fill="black" stroke="black" points="336.5,-593.15 337.23,-582.58 330.06,-590.38 336.5,-593.15"/>
<text text-anchor="middle" x="330.81" y="-605.93" font-family="Times,serif" font-size="14.00">4</text>
</g>
<!-- 129020&#45;&gt;116394 -->
<g id="edge7" class="edge">
<title>129020&#45;&gt;116394</title>
<path fill="none" stroke="black" d="M379.35,-636.76C374.99,-623.25 369.92,-607.54 365.31,-593.22"/>
<polygon fill="black" stroke="black" points="368.6,-592.02 362.2,-583.58 361.94,-594.17 368.6,-592.02"/>
<text text-anchor="middle" x="375.81" y="-605.93" font-family="Times,serif" font-size="14.00">4</text>
</g>
<!-- 116726 -->
<g id="node9" class="node">
<title>116726</title>
<ellipse fill="none" stroke="black" cx="526.31" cy="-794.72" rx="36.13" ry="36.13"/>
<text text-anchor="middle" x="526.31" y="-790.52" font-family="Times,serif" font-size="14.00">116726</text>
</g>
<!-- 113450 -->
<g id="node10" class="node">
<title>113450</title>
<ellipse fill="none" stroke="black" cx="617.31" cy="-794.72" rx="36.13" ry="36.13"/>
<text text-anchor="middle" x="617.31" y="-790.52" font-family="Times,serif" font-size="14.00">113450</text>
</g>
<!-- 116432 -->
<g id="node21" class="node">
<title>116432</title>
<ellipse fill="none" stroke="black" cx="351.31" cy="-426.19" rx="36.13" ry="36.13"/>
<text text-anchor="middle" x="351.31" y="-421.99" font-family="Times,serif" font-size="14.00">116432</text>
</g>
<!-- 116394&#45;&gt;116432 -->
<g id="edge19" class="edge">
<title>116394&#45;&gt;116432</title>
<path fill="none" stroke="black" d="M351.31,-512.28C351.31,-500 351.31,-486.05 351.31,-473.06"/>
<polygon fill="black" stroke="black" points="354.81,-472.9 351.31,-462.9 347.81,-472.9 354.81,-472.9"/>
<text text-anchor="middle" x="354.81" y="-483.31" font-family="Times,serif" font-size="14.00">4</text>
</g>
<!-- 113093 -->
<g id="node13" class="node">
<title>113093</title>
<ellipse fill="none" stroke="black" cx="708.31" cy="-794.72" rx="36.13" ry="36.13"/>
<text text-anchor="middle" x="708.31" y="-790.52" font-family="Times,serif" font-size="14.00">113093</text>
</g>
<!-- 116319 -->
<g id="node14" class="node">
<title>116319</title>
<ellipse fill="none" stroke="black" cx="578.31" cy="-548.82" rx="36.13" ry="36.13"/>
<text text-anchor="middle" x="578.31" y="-544.62" font-family="Times,serif" font-size="14.00">116319</text>
</g>
<!-- 116319&#45;&gt;117536 -->
<g id="edge18" class="edge">
<title>116319&#45;&gt;117536</title>
<path fill="none" stroke="black" d="M542.84,-540.38C506.23,-532.84 447.42,-521.08 396.31,-512.51 340.09,-503.07 318.45,-523.41 269.31,-494.51 258.04,-487.88 248.44,-477.7 240.7,-467.25"/>
<polygon fill="black" stroke="black" points="243.48,-465.11 234.91,-458.88 237.72,-469.09 243.48,-465.11"/>
<text text-anchor="middle" x="272.81" y="-483.31" font-family="Times,serif" font-size="14.00">4</text>
</g>
<!-- 117889 -->
<g id="node15" class="node">
<title>117889</title>
<ellipse fill="none" stroke="black" cx="988.31" cy="-426.19" rx="36.13" ry="36.13"/>
<text text-anchor="middle" x="988.31" y="-421.99" font-family="Times,serif" font-size="14.00">117889</text>
</g>
<!-- 116319&#45;&gt;117889 -->
<g id="edge9" class="edge">
<title>116319&#45;&gt;117889</title>
<path fill="none" stroke="black" d="M614.54,-544.43C688.94,-537.06 856.35,-518.33 908.31,-494.51 926.13,-486.34 943.16,-473.08 956.88,-460.48"/>
<polygon fill="black" stroke="black" points="959.31,-463.01 964.15,-453.59 954.49,-457.93 959.31,-463.01"/>
<text text-anchor="middle" x="933.81" y="-483.31" font-family="Times,serif" font-size="14.00">4</text>
</g>
<!-- 117366 -->
<g id="node16" class="node">
<title>117366</title>
<ellipse fill="none" stroke="black" cx="533.31" cy="-426.19" rx="36.13" ry="36.13"/>
<text text-anchor="middle" x="533.31" y="-421.99" font-family="Times,serif" font-size="14.00">117366</text>
</g>
<!-- 116319&#45;&gt;117366 -->
<g id="edge10" class="edge">
<title>116319&#45;&gt;117366</title>
<path fill="none" stroke="black" d="M565.9,-514.54C560.73,-500.7 554.68,-484.46 549.19,-469.76"/>
<polygon fill="black" stroke="black" points="552.46,-468.51 545.69,-460.37 545.9,-470.96 552.46,-468.51"/>
<text text-anchor="middle" x="560.81" y="-483.31" font-family="Times,serif" font-size="14.00">4</text>
</g>
<!-- 117901 -->
<g id="node17" class="node">
<title>117901</title>
<ellipse fill="none" stroke="black" cx="624.31" cy="-426.19" rx="36.13" ry="36.13"/>
<text text-anchor="middle" x="624.31" y="-421.99" font-family="Times,serif" font-size="14.00">117901</text>
</g>
<!-- 116319&#45;&gt;117901 -->
<g id="edge11" class="edge">
<title>116319&#45;&gt;117901</title>
<path fill="none" stroke="black" d="M591,-514.54C596.28,-500.7 602.48,-484.46 608.08,-469.76"/>
<polygon fill="black" stroke="black" points="611.37,-470.96 611.66,-460.37 604.83,-468.46 611.37,-470.96"/>
<text text-anchor="middle" x="605.81" y="-483.31" font-family="Times,serif" font-size="14.00">4</text>
</g>
<!-- 116572 -->
<g id="node18" class="node">
<title>116572</title>
<ellipse fill="none" stroke="black" cx="1079.31" cy="-426.19" rx="36.13" ry="36.13"/>
<text text-anchor="middle" x="1079.31" y="-421.99" font-family="Times,serif" font-size="14.00">116572</text>
</g>
<!-- 116319&#45;&gt;116572 -->
<g id="edge12" class="edge">
<title>116319&#45;&gt;116572</title>
<path fill="none" stroke="black" d="M614.24,-543.42C693.16,-533.62 879.52,-509.65 941.31,-494.51 983.36,-484.2 995.21,-483.06 1033.31,-462.51 1036.8,-460.62 1040.31,-458.49 1043.74,-456.21"/>
<polygon fill="black" stroke="black" points="1045.9,-458.97 1052.07,-450.36 1041.87,-453.25 1045.9,-458.97"/>
<text text-anchor="middle" x="996.81" y="-483.31" font-family="Times,serif" font-size="14.00">4</text>
</g>
<!-- 116343 -->
<g id="node19" class="node">
<title>116343</title>
<ellipse fill="none" stroke="black" cx="715.31" cy="-426.19" rx="36.13" ry="36.13"/>
<text text-anchor="middle" x="715.31" y="-421.99" font-family="Times,serif" font-size="14.00">116343</text>
</g>
<!-- 116319&#45;&gt;116343 -->
<g id="edge13" class="edge">
<title>116319&#45;&gt;116343</title>
<path fill="none" stroke="black" d="M605.38,-523.99C626.96,-504.99 657.32,-478.25 680.68,-457.69"/>
<polygon fill="black" stroke="black" points="683.11,-460.21 688.3,-450.98 678.48,-454.96 683.11,-460.21"/>
<text text-anchor="middle" x="653.81" y="-483.31" font-family="Times,serif" font-size="14.00">4</text>
</g>
<!-- 116653 -->
<g id="node20" class="node">
<title>116653</title>
<ellipse fill="none" stroke="black" cx="806.31" cy="-426.19" rx="36.13" ry="36.13"/>
<text text-anchor="middle" x="806.31" y="-421.99" font-family="Times,serif" font-size="14.00">116653</text>
</g>
<!-- 116319&#45;&gt;116653 -->
<g id="edge14" class="edge">
<title>116319&#45;&gt;116653</title>
<path fill="none" stroke="black" d="M611.97,-534.63C649.36,-519.39 710.97,-492.52 760.31,-462.51 763.51,-460.56 766.75,-458.44 769.95,-456.22"/>
<polygon fill="black" stroke="black" points="772.21,-458.91 778.29,-450.23 768.12,-453.23 772.21,-458.91"/>
<text text-anchor="middle" x="729.81" y="-483.31" font-family="Times,serif" font-size="14.00">4</text>
</g>
<!-- 116319&#45;&gt;116432 -->
<g id="edge15" class="edge">
<title>116319&#45;&gt;116432</title>
<path fill="none" stroke="black" d="M544.85,-534.6C507.67,-519.33 446.4,-492.44 397.31,-462.51 394.12,-460.56 390.88,-458.43 387.68,-456.22"/>
<polygon fill="black" stroke="black" points="389.51,-453.22 379.35,-450.22 385.42,-458.9 389.51,-453.22"/>
<text text-anchor="middle" x="458.81" y="-483.31" font-family="Times,serif" font-size="14.00">4</text>
</g>
<!-- 116416 -->
<g id="node22" class="node">
<title>116416</title>
<ellipse fill="none" stroke="black" cx="442.31" cy="-426.19" rx="36.13" ry="36.13"/>
<text text-anchor="middle" x="442.31" y="-421.99" font-family="Times,serif" font-size="14.00">116416</text>
</g>
<!-- 116319&#45;&gt;116416 -->
<g id="edge16" class="edge">
<title>116319&#45;&gt;116416</title>
<path fill="none" stroke="black" d="M551.44,-523.99C530.02,-504.99 499.88,-478.25 476.7,-457.69"/>
<polygon fill="black" stroke="black" points="478.93,-454.99 469.13,-450.98 474.29,-460.23 478.93,-454.99"/>
<text text-anchor="middle" x="518.81" y="-483.31" font-family="Times,serif" font-size="14.00">4</text>
</g>
<!-- 116319&#45;&gt;117943 -->
<g id="edge17" class="edge">
<title>116319&#45;&gt;117943</title>
<path fill="none" stroke="black" d="M542.23,-543.59C495.68,-537.23 412.88,-522.8 347.31,-494.51 323.77,-484.35 315.07,-482.73 299.31,-462.51 285.22,-444.42 267.25,-388.72 255.52,-348.59"/>
<polygon fill="black" stroke="black" points="258.82,-347.39 252.68,-338.75 252.09,-349.33 258.82,-347.39"/>
<text text-anchor="middle" x="302.81" y="-421.99" font-family="Times,serif" font-size="14.00">4</text>
</g>
<!-- 117897 -->
<g id="node24" class="node">
<title>117897</title>
<ellipse fill="none" stroke="black" cx="988.31" cy="-303.57" rx="36.13" ry="36.13"/>
<text text-anchor="middle" x="988.31" y="-299.37" font-family="Times,serif" font-size="14.00">117897</text>
</g>
<!-- 117889&#45;&gt;117897 -->
<g id="edge20" class="edge">
<title>117889&#45;&gt;117897</title>
<path fill="none" stroke="black" d="M988.31,-389.65C988.31,-377.37 988.31,-363.43 988.31,-350.44"/>
<polygon fill="black" stroke="black" points="991.81,-350.27 988.31,-340.27 984.81,-350.27 991.81,-350.27"/>
<text text-anchor="middle" x="991.81" y="-360.68" font-family="Times,serif" font-size="14.00">4</text>
</g>
<!-- 116441 -->
<g id="node25" class="node">
<title>116441</title>
<ellipse fill="none" stroke="black" cx="897.31" cy="-303.57" rx="36.13" ry="36.13"/>
<text text-anchor="middle" x="897.31" y="-299.37" font-family="Times,serif" font-size="14.00">116441</text>
</g>
<!-- 117889&#45;&gt;116441 -->
<g id="edge21" class="edge">
<title>117889&#45;&gt;116441</title>
<path fill="none" stroke="black" d="M966.75,-396.61C954.28,-380.08 938.46,-359.12 925.08,-341.37"/>
<polygon fill="black" stroke="black" points="927.54,-338.82 918.72,-332.95 921.95,-343.04 927.54,-338.82"/>
<text text-anchor="middle" x="948.81" y="-360.68" font-family="Times,serif" font-size="14.00">4</text>
</g>
<!-- 117927 -->
<g id="node29" class="node">
<title>117927</title>
<ellipse fill="none" stroke="black" cx="1079.31" cy="-303.57" rx="36.13" ry="36.13"/>
<text text-anchor="middle" x="1079.31" y="-299.37" font-family="Times,serif" font-size="14.00">117927</text>
</g>
<!-- 116572&#45;&gt;117927 -->
<g id="edge25" class="edge">
<title>116572&#45;&gt;117927</title>
<path fill="none" stroke="black" d="M1079.31,-389.65C1079.31,-377.37 1079.31,-363.43 1079.31,-350.44"/>
<polygon fill="black" stroke="black" points="1082.81,-350.27 1079.31,-340.27 1075.81,-350.27 1082.81,-350.27"/>
<text text-anchor="middle" x="1082.81" y="-360.68" font-family="Times,serif" font-size="14.00">4</text>
</g>
<!-- 117951 -->
<g id="node30" class="node">
<title>117951</title>
<ellipse fill="none" stroke="black" cx="715.31" cy="-303.57" rx="36.13" ry="36.13"/>
<text text-anchor="middle" x="715.31" y="-299.37" font-family="Times,serif" font-size="14.00">117951</text>
</g>
<!-- 116343&#45;&gt;117951 -->
<g id="edge26" class="edge">
<title>116343&#45;&gt;117951</title>
<path fill="none" stroke="black" d="M715.31,-389.65C715.31,-377.37 715.31,-363.43 715.31,-350.44"/>
<polygon fill="black" stroke="black" points="718.81,-350.27 715.31,-340.27 711.81,-350.27 718.81,-350.27"/>
<text text-anchor="middle" x="718.81" y="-360.68" font-family="Times,serif" font-size="14.00">4</text>
</g>
<!-- 116432&#45;&gt;117951 -->
<g id="edge28" class="edge">
<title>116432&#45;&gt;117951</title>
<path fill="none" stroke="black" d="M378.37,-401.66C384.33,-397.28 390.81,-393.09 397.31,-389.88 488.11,-345.07 605.51,-321.43 669.22,-311.11"/>
<polygon fill="black" stroke="black" points="670.02,-314.53 679.35,-309.51 668.93,-307.61 670.02,-314.53"/>
<text text-anchor="middle" x="475.81" y="-360.68" font-family="Times,serif" font-size="14.00">4</text>
</g>
<!-- 117935 -->
<g id="node28" class="node">
<title>117935</title>
<ellipse fill="none" stroke="black" cx="988.31" cy="-180.94" rx="36.13" ry="36.13"/>
<text text-anchor="middle" x="988.31" y="-176.74" font-family="Times,serif" font-size="14.00">117935</text>
</g>
<!-- 117897&#45;&gt;117935 -->
<g id="edge24" class="edge">
<title>117897&#45;&gt;117935</title>
<path fill="none" stroke="black" d="M988.31,-267.03C988.31,-254.74 988.31,-240.8 988.31,-227.81"/>
<polygon fill="black" stroke="black" points="991.81,-227.64 988.31,-217.64 984.81,-227.64 991.81,-227.64"/>
<text text-anchor="middle" x="991.81" y="-238.05" font-family="Times,serif" font-size="14.00">4</text>
</g>
<!-- 113107 -->
<g id="node26" class="node">
<title>113107</title>
<ellipse fill="none" stroke="black" cx="897.31" cy="-548.82" rx="36.13" ry="36.13"/>
<text text-anchor="middle" x="897.31" y="-544.62" font-family="Times,serif" font-size="14.00">113107</text>
</g>
<!-- 116882 -->
<g id="node27" class="node">
<title>116882</title>
<ellipse fill="none" stroke="black" cx="897.31" cy="-426.19" rx="36.13" ry="36.13"/>
<text text-anchor="middle" x="897.31" y="-421.99" font-family="Times,serif" font-size="14.00">116882</text>
</g>
<!-- 113107&#45;&gt;116882 -->
<g id="edge22" class="edge">
<title>113107&#45;&gt;116882</title>
<path fill="none" stroke="black" d="M897.31,-512.28C897.31,-500 897.31,-486.05 897.31,-473.06"/>
<polygon fill="black" stroke="black" points="900.81,-472.9 897.31,-462.9 893.81,-472.9 900.81,-472.9"/>
<text text-anchor="middle" x="900.81" y="-483.31" font-family="Times,serif" font-size="14.00">6</text>
</g>
<!-- 116882&#45;&gt;117951 -->
<g id="edge29" class="edge">
<title>116882&#45;&gt;117951</title>
<path fill="none" stroke="black" d="M868.91,-402.73C863.16,-398.37 857.1,-393.9 851.31,-389.88 819.75,-367.94 782.73,-344.88 755.28,-328.27"/>
<polygon fill="black" stroke="black" points="756.74,-325.06 746.37,-322.9 753.13,-331.06 756.74,-325.06"/>
<text text-anchor="middle" x="824.81" y="-360.68" font-family="Times,serif" font-size="14.00">4</text>
</g>
<!-- 117960 -->
<g id="node31" class="node">
<title>117960</title>
<ellipse fill="none" stroke="black" cx="988.31" cy="-58.31" rx="36.13" ry="36.13"/>
<text text-anchor="middle" x="988.31" y="-54.11" font-family="Times,serif" font-size="14.00">117960</text>
</g>
<!-- 117935&#45;&gt;117960 -->
<g id="edge27" class="edge">
<title>117935&#45;&gt;117960</title>
<path fill="none" stroke="black" d="M988.31,-144.4C988.31,-132.12 988.31,-118.17 988.31,-105.18"/>
<polygon fill="black" stroke="black" points="991.81,-105.02 988.31,-95.02 984.81,-105.02 991.81,-105.02"/>
<text text-anchor="middle" x="991.81" y="-115.43" font-family="Times,serif" font-size="14.00">4</text>
</g>
<!-- 116378 -->
<g id="node32" class="node">
<title>116378</title>
<ellipse fill="none" stroke="black" cx="799.31" cy="-794.72" rx="36.13" ry="36.13"/>
<text text-anchor="middle" x="799.31" y="-790.52" font-family="Times,serif" font-size="14.00">116378</text>
</g>
<!-- 117919 -->
<g id="node33" class="node">
<title>117919</title>
<ellipse fill="none" stroke="black" cx="890.31" cy="-794.72" rx="36.13" ry="36.13"/>
<text text-anchor="middle" x="890.31" y="-790.52" font-family="Times,serif" font-size="14.00">117919</text>
</g>
<!-- 116297 -->
<g id="node34" class="node">
<title>116297</title>
<ellipse fill="none" stroke="black" cx="981.31" cy="-794.72" rx="36.13" ry="36.13"/>
<text text-anchor="middle" x="981.31" y="-790.52" font-family="Times,serif" font-size="14.00">116297</text>
</g>
</g>
</svg>
