<?xml version="1.0" encoding="UTF-8" standalone="no"?>
<!DOCTYPE svg PUBLIC "-//W3C//DTD SVG 1.1//EN"
 "http://www.w3.org/Graphics/SVG/1.1/DTD/svg11.dtd">
<!-- Generated by graphviz version 2.43.0 (0)
 -->
<!-- Title: G Pages: 1 -->
<svg width="8276pt" height="591pt"
 viewBox="0.00 0.00 8276.25 590.76" xmlns="http://www.w3.org/2000/svg" xmlns:xlink="http://www.w3.org/1999/xlink">
<g id="graph0" class="graph" transform="scale(1 1) rotate(0) translate(4 586.76)">
<title>G</title>
<polygon fill="white" stroke="transparent" points="-4,4 -4,-586.76 8272.25,-586.76 8272.25,4 -4,4"/>
<text text-anchor="middle" x="4134.12" y="-6.8" font-family="Times,serif" font-size="14.00">Ordenação Topológica do Curso Ciência da Computação &#45; 2019.2</text>
<!-- Calculo_I -->
<g id="node1" class="node">
<title>Calculo_I</title>
<ellipse fill="none" stroke="black" cx="44.98" cy="-200.59" rx="44.96" ry="44.96"/>
<text text-anchor="middle" x="44.98" y="-196.39" font-family="Times,serif" font-size="14.00">Calculo_I</text>
</g>
<!-- Calculo_II -->
<g id="node8" class="node">
<title>Calculo_II</title>
<ellipse fill="none" stroke="black" cx="443.98" cy="-200.59" rx="47.85" ry="47.85"/>
<text text-anchor="middle" x="443.98" y="-196.39" font-family="Times,serif" font-size="14.00">Calculo_II</text>
</g>
<!-- Calculo_I&#45;&gt;Calculo_II -->
<g id="edge1" class="edge">
<title>Calculo_I&#45;&gt;Calculo_II</title>
<path fill="none" stroke="black" d="M49.32,-245.42C56.07,-287.66 73.25,-348.71 116.98,-378.17 160.11,-407.22 306.49,-405.09 350.98,-378.17 394.12,-352.07 418.22,-298.63 431.01,-257.16"/>
<polygon fill="black" stroke="black" points="434.41,-258.02 433.87,-247.43 427.69,-256.04 434.41,-258.02"/>
<text text-anchor="middle" x="374.98" y="-399.97" font-family="Times,serif" font-size="14.00">6</text>
</g>
<!-- Probabilidade_e_Estatistica -->
<g id="node15" class="node">
<title>Probabilidade_e_Estatistica</title>
<ellipse fill="none" stroke="black" cx="233.98" cy="-200.59" rx="108.18" ry="108.18"/>
<text text-anchor="middle" x="233.98" y="-196.39" font-family="Times,serif" font-size="14.00">Probabilidade_e_Estatistica</text>
</g>
<!-- Calculo_I&#45;&gt;Probabilidade_e_Estatistica -->
<g id="edge2" class="edge">
<title>Calculo_I&#45;&gt;Probabilidade_e_Estatistica</title>
<path fill="none" stroke="black" d="M90.25,-200.59C98.11,-200.59 106.59,-200.59 115.37,-200.59"/>
<polygon fill="black" stroke="black" points="115.4,-204.09 125.4,-200.59 115.4,-197.09 115.4,-204.09"/>
<text text-anchor="middle" x="107.8" y="-206.39" font-family="Times,serif" font-size="14.00">6</text>
</g>
<!-- Projeto_e_Analise_de_Algoritmos -->
<g id="node30" class="node">
<title>Projeto_e_Analise_de_Algoritmos</title>
<ellipse fill="none" stroke="black" cx="1033.98" cy="-200.59" rx="132.83" ry="132.83"/>
<text text-anchor="middle" x="1033.98" y="-196.39" font-family="Times,serif" font-size="14.00">Projeto_e_Analise_de_Algoritmos</text>
</g>
<!-- Calculo_I&#45;&gt;Projeto_e_Analise_de_Algoritmos -->
<g id="edge3" class="edge">
<title>Calculo_I&#45;&gt;Projeto_e_Analise_de_Algoritmos</title>
<path fill="none" stroke="black" d="M49.32,-245.42C56.07,-287.66 73.25,-348.71 116.98,-378.17 186.74,-425.16 797.14,-412.37 873.98,-378.17 903.87,-364.87 930.53,-342.92 953.11,-318.9"/>
<polygon fill="black" stroke="black" points="955.81,-321.13 959.98,-311.39 950.65,-316.4 955.81,-321.13"/>
<text text-anchor="middle" x="230.98" y="-399.97" font-family="Times,serif" font-size="14.00">6</text>
</g>
<!-- Introducao_aos_Sistemas_Computacionais -->
<g id="node2" class="node">
<title>Introducao_aos_Sistemas_Computacionais</title>
<ellipse fill="none" stroke="black" cx="6608.98" cy="-200.59" rx="162.27" ry="162.27"/>
<text text-anchor="middle" x="6608.98" y="-196.39" font-family="Times,serif" font-size="14.00">Introducao_aos_Sistemas_Computacionais</text>
</g>
<!-- Algoritmos_e_Programacao_de_Computadores -->
<g id="node3" class="node">
<title>Algoritmos_e_Programacao_de_Computadores</title>
<ellipse fill="none" stroke="black" cx="4626.98" cy="-200.59" rx="178.67" ry="178.67"/>
<text text-anchor="middle" x="4626.98" y="-196.39" font-family="Times,serif" font-size="14.00">Algoritmos_e_Programacao_de_Computadores</text>
</g>
<!-- Circuitos_Logicos -->
<g id="node6" class="node">
<title>Circuitos_Logicos</title>
<ellipse fill="none" stroke="black" cx="5237.98" cy="-200.59" rx="75.39" ry="75.39"/>
<text text-anchor="middle" x="5237.98" y="-196.39" font-family="Times,serif" font-size="14.00">Circuitos_Logicos</text>
</g>
<!-- Algoritmos_e_Programacao_de_Computadores&#45;&gt;Circuitos_Logicos -->
<g id="edge4" class="edge">
<title>Algoritmos_e_Programacao_de_Computadores&#45;&gt;Circuitos_Logicos</title>
<path fill="none" stroke="black" d="M4749.72,-330.68C4774.92,-350.12 4802.75,-367.27 4831.98,-378.17 4891.53,-400.38 5061.85,-407.99 5117.98,-378.17 5157.21,-357.33 5185.95,-317.31 5205.45,-280.53"/>
<polygon fill="black" stroke="black" points="5208.75,-281.75 5210.21,-271.26 5202.53,-278.56 5208.75,-281.75"/>
<text text-anchor="middle" x="5141.98" y="-399.97" font-family="Times,serif" font-size="14.00">6</text>
</g>
<!-- Laboratorio_de_Circuitos_Logicos -->
<g id="node7" class="node">
<title>Laboratorio_de_Circuitos_Logicos</title>
<ellipse fill="none" stroke="black" cx="4974.98" cy="-200.59" rx="134.25" ry="134.25"/>
<text text-anchor="middle" x="4974.98" y="-196.39" font-family="Times,serif" font-size="14.00">Laboratorio_de_Circuitos_Logicos</text>
</g>
<!-- Algoritmos_e_Programacao_de_Computadores&#45;&gt;Laboratorio_de_Circuitos_Logicos -->
<g id="edge5" class="edge">
<title>Algoritmos_e_Programacao_de_Computadores&#45;&gt;Laboratorio_de_Circuitos_Logicos</title>
<path fill="none" stroke="black" d="M4805.57,-200.59C4813.78,-200.59 4821.98,-200.59 4830.09,-200.59"/>
<polygon fill="black" stroke="black" points="4830.32,-204.09 4840.32,-200.59 4830.32,-197.09 4830.32,-204.09"/>
<text text-anchor="middle" x="4823.08" y="-206.39" font-family="Times,serif" font-size="14.00">6</text>
</g>
<!-- Informatica_e_Sociedade -->
<g id="node4" class="node">
<title>Informatica_e_Sociedade</title>
<ellipse fill="none" stroke="black" cx="6889.98" cy="-200.59" rx="100.43" ry="100.43"/>
<text text-anchor="middle" x="6889.98" y="-196.39" font-family="Times,serif" font-size="14.00">Informatica_e_Sociedade</text>
</g>
<!-- Fundamentos_Teoricos_da_Computacao -->
<g id="node5" class="node">
<title>Fundamentos_Teoricos_da_Computacao</title>
<ellipse fill="none" stroke="black" cx="7162.98" cy="-200.59" rx="154.28" ry="154.28"/>
<text text-anchor="middle" x="7162.98" y="-196.39" font-family="Times,serif" font-size="14.00">Fundamentos_Teoricos_da_Computacao</text>
</g>
<!-- Organizacao_e_Arquitetura_de_Computadores -->
<g id="node11" class="node">
<title>Organizacao_e_Arquitetura_de_Computadores</title>
<ellipse fill="none" stroke="black" cx="5525.98" cy="-200.59" rx="176.86" ry="176.86"/>
<text text-anchor="middle" x="5525.98" y="-196.39" font-family="Times,serif" font-size="14.00">Organizacao_e_Arquitetura_de_Computadores</text>
</g>
<!-- Circuitos_Logicos&#45;&gt;Organizacao_e_Arquitetura_de_Computadores -->
<g id="edge19" class="edge">
<title>Circuitos_Logicos&#45;&gt;Organizacao_e_Arquitetura_de_Computadores</title>
<path fill="none" stroke="black" d="M5313.65,-200.59C5321.67,-200.59 5330.07,-200.59 5338.69,-200.59"/>
<polygon fill="black" stroke="black" points="5338.91,-204.09 5348.91,-200.59 5338.91,-197.09 5338.91,-204.09"/>
<text text-anchor="middle" x="5331.24" y="-206.39" font-family="Times,serif" font-size="14.00">4</text>
</g>
<!-- Laboratorio_de_Circuitos_Logicos&#45;&gt;Organizacao_e_Arquitetura_de_Computadores -->
<g id="edge20" class="edge">
<title>Laboratorio_de_Circuitos_Logicos&#45;&gt;Organizacao_e_Arquitetura_de_Computadores</title>
<path fill="none" stroke="black" d="M5056.3,-307.9C5083.88,-336.18 5117.15,-363 5153.98,-378.17 5223.02,-406.61 5252.05,-404.35 5321.98,-378.17 5348.44,-368.27 5373.72,-353.22 5396.93,-335.98"/>
<polygon fill="black" stroke="black" points="5399.21,-338.64 5405.05,-329.79 5394.97,-333.07 5399.21,-338.64"/>
<text text-anchor="middle" x="5129.98" y="-399.97" font-family="Times,serif" font-size="14.00">2</text>
</g>
<!-- Calculo_Numerico -->
<g id="node14" class="node">
<title>Calculo_Numerico</title>
<ellipse fill="none" stroke="black" cx="604.98" cy="-200.59" rx="77.29" ry="77.29"/>
<text text-anchor="middle" x="604.98" y="-196.39" font-family="Times,serif" font-size="14.00">Calculo_Numerico</text>
</g>
<!-- Calculo_II&#45;&gt;Calculo_Numerico -->
<g id="edge17" class="edge">
<title>Calculo_II&#45;&gt;Calculo_Numerico</title>
<path fill="none" stroke="black" d="M492.29,-200.59C500.27,-200.59 508.77,-200.59 517.37,-200.59"/>
<polygon fill="black" stroke="black" points="517.5,-204.09 527.5,-200.59 517.5,-197.09 517.5,-204.09"/>
<text text-anchor="middle" x="509.74" y="-206.39" font-family="Times,serif" font-size="14.00">6</text>
</g>
<!-- Introducao_a_Algebra_Linear -->
<g id="node9" class="node">
<title>Introducao_a_Algebra_Linear</title>
<ellipse fill="none" stroke="black" cx="7452.98" cy="-200.59" rx="117.32" ry="117.32"/>
<text text-anchor="middle" x="7452.98" y="-196.39" font-family="Times,serif" font-size="14.00">Introducao_a_Algebra_Linear</text>
</g>
<!-- Estrutura_de_Dados -->
<g id="node10" class="node">
<title>Estrutura_de_Dados</title>
<ellipse fill="none" stroke="black" cx="782.98" cy="-200.59" rx="82.12" ry="82.12"/>
<text text-anchor="middle" x="782.98" y="-196.39" font-family="Times,serif" font-size="14.00">Estrutura_de_Dados</text>
</g>
<!-- Tecnicas_de_Programacao_1 -->
<g id="node12" class="node">
<title>Tecnicas_de_Programacao_1</title>
<ellipse fill="none" stroke="black" cx="3241.98" cy="-200.59" rx="113.7" ry="113.7"/>
<text text-anchor="middle" x="3241.98" y="-196.39" font-family="Times,serif" font-size="14.00">Tecnicas_de_Programacao_1</text>
</g>
<!-- Estrutura_de_Dados&#45;&gt;Tecnicas_de_Programacao_1 -->
<g id="edge6" class="edge">
<title>Estrutura_de_Dados&#45;&gt;Tecnicas_de_Programacao_1</title>
<path fill="none" stroke="black" d="M810.08,-278.82C827.34,-315.96 853.78,-356.8 891.98,-378.17 945.96,-408.38 3064.18,-406.88 3118.98,-378.17 3147.31,-363.33 3170.41,-338.68 3188.63,-312.39"/>
<polygon fill="black" stroke="black" points="3191.72,-314.06 3194.37,-303.81 3185.9,-310.17 3191.72,-314.06"/>
<text text-anchor="middle" x="2816.98" y="-399.97" font-family="Times,serif" font-size="14.00">4</text>
</g>
<!-- Logica_Computacional_1 -->
<g id="node16" class="node">
<title>Logica_Computacional_1</title>
<ellipse fill="none" stroke="black" cx="3007.98" cy="-200.59" rx="101.91" ry="101.91"/>
<text text-anchor="middle" x="3007.98" y="-196.39" font-family="Times,serif" font-size="14.00">Logica_Computacional_1</text>
</g>
<!-- Estrutura_de_Dados&#45;&gt;Logica_Computacional_1 -->
<g id="edge7" class="edge">
<title>Estrutura_de_Dados&#45;&gt;Logica_Computacional_1</title>
<path fill="none" stroke="black" d="M810.08,-278.82C827.34,-315.96 853.78,-356.8 891.98,-378.17 940.58,-405.37 2848.27,-405.17 2896.98,-378.17 2926.52,-361.8 2949.24,-333.93 2966.19,-305.06"/>
<polygon fill="black" stroke="black" points="2969.4,-306.5 2971.27,-296.08 2963.3,-303.06 2969.4,-306.5"/>
<text text-anchor="middle" x="1000.98" y="-399.97" font-family="Times,serif" font-size="14.00">4</text>
</g>
<!-- Teoria_e_Aplicacao_de_Grafos -->
<g id="node18" class="node">
<title>Teoria_e_Aplicacao_de_Grafos</title>
<ellipse fill="none" stroke="black" cx="2765.98" cy="-200.59" rx="122.37" ry="122.37"/>
<text text-anchor="middle" x="2765.98" y="-196.39" font-family="Times,serif" font-size="14.00">Teoria_e_Aplicacao_de_Grafos</text>
</g>
<!-- Estrutura_de_Dados&#45;&gt;Teoria_e_Aplicacao_de_Grafos -->
<g id="edge8" class="edge">
<title>Estrutura_de_Dados&#45;&gt;Teoria_e_Aplicacao_de_Grafos</title>
<path fill="none" stroke="black" d="M810.08,-278.82C827.34,-315.96 853.78,-356.8 891.98,-378.17 934.21,-401.8 2590.75,-399.91 2633.98,-378.17 2661.27,-364.45 2684.34,-342.13 2703.18,-317.86"/>
<polygon fill="black" stroke="black" points="2706.2,-319.66 2709.41,-309.57 2700.61,-315.46 2706.2,-319.66"/>
<text text-anchor="middle" x="2514.98" y="-399.97" font-family="Times,serif" font-size="14.00">4</text>
</g>
<!-- Redes_de_Computadores -->
<g id="node19" class="node">
<title>Redes_de_Computadores</title>
<ellipse fill="none" stroke="black" cx="2278.98" cy="-200.59" rx="100.48" ry="100.48"/>
<text text-anchor="middle" x="2278.98" y="-196.39" font-family="Times,serif" font-size="14.00">Redes_de_Computadores</text>
</g>
<!-- Estrutura_de_Dados&#45;&gt;Redes_de_Computadores -->
<g id="edge9" class="edge">
<title>Estrutura_de_Dados&#45;&gt;Redes_de_Computadores</title>
<path fill="none" stroke="black" d="M810.08,-278.82C827.34,-315.96 853.78,-356.8 891.98,-378.17 953.89,-412.81 2107,-412.69 2168.98,-378.17 2198.84,-361.54 2221.63,-333.09 2238.5,-303.77"/>
<polygon fill="black" stroke="black" points="2241.76,-305.1 2243.54,-294.65 2235.64,-301.7 2241.76,-305.1"/>
<text text-anchor="middle" x="1069.98" y="-399.97" font-family="Times,serif" font-size="14.00">4</text>
</g>
<!-- Linguagens_de_Programacao -->
<g id="node20" class="node">
<title>Linguagens_de_Programacao</title>
<ellipse fill="none" stroke="black" cx="2044.98" cy="-200.59" rx="115.42" ry="115.42"/>
<text text-anchor="middle" x="2044.98" y="-196.39" font-family="Times,serif" font-size="14.00">Linguagens_de_Programacao</text>
</g>
<!-- Estrutura_de_Dados&#45;&gt;Linguagens_de_Programacao -->
<g id="edge10" class="edge">
<title>Estrutura_de_Dados&#45;&gt;Linguagens_de_Programacao</title>
<path fill="none" stroke="black" d="M810.08,-278.82C827.34,-315.96 853.78,-356.8 891.98,-378.17 941.87,-406.09 1870.29,-404.6 1920.98,-378.17 1948.96,-363.58 1971.92,-339.48 1990.15,-313.66"/>
<polygon fill="black" stroke="black" points="1993.15,-315.46 1995.9,-305.23 1987.37,-311.52 1993.15,-315.46"/>
<text text-anchor="middle" x="1725.98" y="-399.97" font-family="Times,serif" font-size="14.00">4</text>
</g>
<!-- Introducao_a_Inteligencia_Artificial -->
<g id="node24" class="node">
<title>Introducao_a_Inteligencia_Artificial</title>
<ellipse fill="none" stroke="black" cx="1772.98" cy="-200.59" rx="139.04" ry="139.04"/>
<text text-anchor="middle" x="1772.98" y="-196.39" font-family="Times,serif" font-size="14.00">Introducao_a_Inteligencia_Artificial</text>
</g>
<!-- Estrutura_de_Dados&#45;&gt;Introducao_a_Inteligencia_Artificial -->
<g id="edge11" class="edge">
<title>Estrutura_de_Dados&#45;&gt;Introducao_a_Inteligencia_Artificial</title>
<path fill="none" stroke="black" d="M810.08,-278.82C827.34,-315.96 853.78,-356.8 891.98,-378.17 962.96,-417.89 1550.27,-412.55 1623.98,-378.17 1649.59,-366.23 1672.36,-347.47 1691.93,-326.55"/>
<polygon fill="black" stroke="black" points="1694.59,-328.82 1698.71,-319.06 1689.4,-324.12 1694.59,-328.82"/>
<text text-anchor="middle" x="1110.98" y="-399.97" font-family="Times,serif" font-size="14.00">4</text>
</g>
<!-- Software_Basico -->
<g id="node25" class="node">
<title>Software_Basico</title>
<ellipse fill="none" stroke="black" cx="5808.98" cy="-200.59" rx="70.54" ry="70.54"/>
<text text-anchor="middle" x="5808.98" y="-196.39" font-family="Times,serif" font-size="14.00">Software_Basico</text>
</g>
<!-- Estrutura_de_Dados&#45;&gt;Software_Basico -->
<g id="edge12" class="edge">
<title>Estrutura_de_Dados&#45;&gt;Software_Basico</title>
<path fill="none" stroke="black" d="M810.08,-278.82C827.34,-315.96 853.78,-356.8 891.98,-378.17 950.4,-410.86 5654.4,-412.33 5711.98,-378.17 5748.45,-356.54 5772.1,-315.82 5786.9,-278.83"/>
<polygon fill="black" stroke="black" points="5790.35,-279.6 5790.66,-269.01 5783.81,-277.1 5790.35,-279.6"/>
<text text-anchor="middle" x="1531.98" y="-399.97" font-family="Times,serif" font-size="14.00">4</text>
</g>
<!-- Sistemas_de_Informacao -->
<g id="node28" class="node">
<title>Sistemas_de_Informacao</title>
<ellipse fill="none" stroke="black" cx="1515.98" cy="-200.59" rx="99.49" ry="99.49"/>
<text text-anchor="middle" x="1515.98" y="-196.39" font-family="Times,serif" font-size="14.00">Sistemas_de_Informacao</text>
</g>
<!-- Estrutura_de_Dados&#45;&gt;Sistemas_de_Informacao -->
<g id="edge13" class="edge">
<title>Estrutura_de_Dados&#45;&gt;Sistemas_de_Informacao</title>
<path fill="none" stroke="black" d="M810.08,-278.82C827.34,-315.96 853.78,-356.8 891.98,-378.17 942.01,-406.17 1358,-406.27 1407.98,-378.17 1437.77,-361.42 1460.3,-332.76 1476.86,-303.3"/>
<polygon fill="black" stroke="black" points="1480.13,-304.6 1481.81,-294.14 1473.98,-301.27 1480.13,-304.6"/>
<text text-anchor="middle" x="1136.98" y="-399.97" font-family="Times,serif" font-size="14.00">4</text>
</g>
<!-- Computacao_Experimental -->
<g id="node29" class="node">
<title>Computacao_Experimental</title>
<ellipse fill="none" stroke="black" cx="1291.98" cy="-200.59" rx="106.73" ry="106.73"/>
<text text-anchor="middle" x="1291.98" y="-196.39" font-family="Times,serif" font-size="14.00">Computacao_Experimental</text>
</g>
<!-- Estrutura_de_Dados&#45;&gt;Computacao_Experimental -->
<g id="edge14" class="edge">
<title>Estrutura_de_Dados&#45;&gt;Computacao_Experimental</title>
<path fill="none" stroke="black" d="M810.08,-278.82C827.34,-315.96 853.78,-356.8 891.98,-378.17 947.06,-408.99 1120.48,-408.21 1175.98,-378.17 1205.04,-362.45 1227.97,-335.93 1245.51,-308.12"/>
<polygon fill="black" stroke="black" points="1248.58,-309.82 1250.78,-299.46 1242.6,-306.18 1248.58,-309.82"/>
<text text-anchor="middle" x="1155.98" y="-399.97" font-family="Times,serif" font-size="14.00">4</text>
</g>
<!-- Estrutura_de_Dados&#45;&gt;Projeto_e_Analise_de_Algoritmos -->
<g id="edge15" class="edge">
<title>Estrutura_de_Dados&#45;&gt;Projeto_e_Analise_de_Algoritmos</title>
<path fill="none" stroke="black" d="M865.51,-200.59C873.73,-200.59 882.23,-200.59 890.83,-200.59"/>
<polygon fill="black" stroke="black" points="890.98,-204.09 900.98,-200.59 890.98,-197.09 890.98,-204.09"/>
<text text-anchor="middle" x="883.18" y="-206.39" font-family="Times,serif" font-size="14.00">4</text>
</g>
<!-- Organizacao_e_Arquitetura_de_Computadores&#45;&gt;Software_Basico -->
<g id="edge26" class="edge">
<title>Organizacao_e_Arquitetura_de_Computadores&#45;&gt;Software_Basico</title>
<path fill="none" stroke="black" d="M5703.2,-200.59C5711.81,-200.59 5720.24,-200.59 5728.34,-200.59"/>
<polygon fill="black" stroke="black" points="5728.41,-204.09 5738.41,-200.59 5728.41,-197.09 5728.41,-204.09"/>
<text text-anchor="middle" x="5720.69" y="-206.39" font-family="Times,serif" font-size="14.00">4</text>
</g>
<!-- Tecnicas_de_programacao_2 -->
<g id="node17" class="node">
<title>Tecnicas_de_programacao_2</title>
<ellipse fill="none" stroke="black" cx="3721.98" cy="-200.59" rx="113.2" ry="113.2"/>
<text text-anchor="middle" x="3721.98" y="-196.39" font-family="Times,serif" font-size="14.00">Tecnicas_de_programacao_2</text>
</g>
<!-- Tecnicas_de_Programacao_1&#45;&gt;Tecnicas_de_programacao_2 -->
<g id="edge21" class="edge">
<title>Tecnicas_de_Programacao_1&#45;&gt;Tecnicas_de_programacao_2</title>
<path fill="none" stroke="black" d="M3296.77,-300.38C3319.14,-331.13 3348.06,-361.31 3382.98,-378.17 3469.43,-419.92 3513.94,-422.72 3598.98,-378.17 3627.46,-363.25 3650.66,-338.41 3668.92,-311.97"/>
<polygon fill="black" stroke="black" points="3672.04,-313.6 3674.67,-303.34 3666.21,-309.72 3672.04,-313.6"/>
<text text-anchor="middle" x="3481.98" y="-399.97" font-family="Times,serif" font-size="14.00">4</text>
</g>
<!-- Engenharia_de_Software -->
<g id="node22" class="node">
<title>Engenharia_de_Software</title>
<ellipse fill="none" stroke="black" cx="3490.98" cy="-200.59" rx="99.47" ry="99.47"/>
<text text-anchor="middle" x="3490.98" y="-196.39" font-family="Times,serif" font-size="14.00">Engenharia_de_Software</text>
</g>
<!-- Tecnicas_de_Programacao_1&#45;&gt;Engenharia_de_Software -->
<g id="edge22" class="edge">
<title>Tecnicas_de_Programacao_1&#45;&gt;Engenharia_de_Software</title>
<path fill="none" stroke="black" d="M3355.91,-200.59C3364.29,-200.59 3372.73,-200.59 3381.08,-200.59"/>
<polygon fill="black" stroke="black" points="3381.21,-204.09 3391.21,-200.59 3381.21,-197.09 3381.21,-204.09"/>
<text text-anchor="middle" x="3373.54" y="-206.39" font-family="Times,serif" font-size="14.00">4</text>
</g>
<!-- Algebra_1 -->
<g id="node13" class="node">
<title>Algebra_1</title>
<ellipse fill="none" stroke="black" cx="5944.98" cy="-200.59" rx="47.37" ry="47.37"/>
<text text-anchor="middle" x="5944.98" y="-196.39" font-family="Times,serif" font-size="14.00">Algebra_1</text>
</g>
<!-- Automatos_e_Computabilidade -->
<g id="node27" class="node">
<title>Automatos_e_Computabilidade</title>
<ellipse fill="none" stroke="black" cx="6150.98" cy="-200.59" rx="122.7" ry="122.7"/>
<text text-anchor="middle" x="6150.98" y="-196.39" font-family="Times,serif" font-size="14.00">Automatos_e_Computabilidade</text>
</g>
<!-- Algebra_1&#45;&gt;Automatos_e_Computabilidade -->
<g id="edge16" class="edge">
<title>Algebra_1&#45;&gt;Automatos_e_Computabilidade</title>
<path fill="none" stroke="black" d="M5992.5,-200.59C6000.44,-200.59 6009.01,-200.59 6017.91,-200.59"/>
<polygon fill="black" stroke="black" points="6018.08,-204.09 6028.08,-200.59 6018.08,-197.09 6018.08,-204.09"/>
<text text-anchor="middle" x="6010.4" y="-206.39" font-family="Times,serif" font-size="14.00">4</text>
</g>
<!-- Probabilidade_e_Estatistica&#45;&gt;Computacao_Experimental -->
<g id="edge18" class="edge">
<title>Probabilidade_e_Estatistica&#45;&gt;Computacao_Experimental</title>
<path fill="none" stroke="black" d="M289.98,-294C315.11,-326.98 347.95,-360.28 386.98,-378.17 466.67,-414.7 1098.88,-419.9 1175.98,-378.17 1205.04,-362.45 1227.97,-335.93 1245.51,-308.12"/>
<polygon fill="black" stroke="black" points="1248.58,-309.82 1250.78,-299.46 1242.6,-306.18 1248.58,-309.82"/>
<text text-anchor="middle" x="362.98" y="-399.97" font-family="Times,serif" font-size="14.00">4</text>
</g>
<!-- Programacao_Concorrente -->
<g id="node21" class="node">
<title>Programacao_Concorrente</title>
<ellipse fill="none" stroke="black" cx="3974.98" cy="-200.59" rx="104.78" ry="104.78"/>
<text text-anchor="middle" x="3974.98" y="-196.39" font-family="Times,serif" font-size="14.00">Programacao_Concorrente</text>
</g>
<!-- Tecnicas_de_programacao_2&#45;&gt;Programacao_Concorrente -->
<g id="edge27" class="edge">
<title>Tecnicas_de_programacao_2&#45;&gt;Programacao_Concorrente</title>
<path fill="none" stroke="black" d="M3835.16,-200.59C3843.39,-200.59 3851.7,-200.59 3859.94,-200.59"/>
<polygon fill="black" stroke="black" points="3859.95,-204.09 3869.95,-200.59 3859.95,-197.09 3859.95,-204.09"/>
<text text-anchor="middle" x="3852.59" y="-206.39" font-family="Times,serif" font-size="14.00">4</text>
</g>
<!-- Seguranca_Computacional -->
<g id="node32" class="node">
<title>Seguranca_Computacional</title>
<ellipse fill="none" stroke="black" cx="2519.98" cy="-200.59" rx="105.28" ry="105.28"/>
<text text-anchor="middle" x="2519.98" y="-196.39" font-family="Times,serif" font-size="14.00">Seguranca_Computacional</text>
</g>
<!-- Redes_de_Computadores&#45;&gt;Seguranca_Computacional -->
<g id="edge23" class="edge">
<title>Redes_de_Computadores&#45;&gt;Seguranca_Computacional</title>
<path fill="none" stroke="black" d="M2379.79,-200.59C2387.95,-200.59 2396.24,-200.59 2404.49,-200.59"/>
<polygon fill="black" stroke="black" points="2404.53,-204.09 2414.53,-200.59 2404.53,-197.09 2404.53,-204.09"/>
<text text-anchor="middle" x="2397.03" y="-206.39" font-family="Times,serif" font-size="14.00">4</text>
</g>
<!-- Compiladores -->
<g id="node31" class="node">
<title>Compiladores</title>
<ellipse fill="none" stroke="black" cx="6368.98" cy="-200.59" rx="59.94" ry="59.94"/>
<text text-anchor="middle" x="6368.98" y="-196.39" font-family="Times,serif" font-size="14.00">Compiladores</text>
</g>
<!-- Linguagens_de_Programacao&#45;&gt;Compiladores -->
<g id="edge24" class="edge">
<title>Linguagens_de_Programacao&#45;&gt;Compiladores</title>
<path fill="none" stroke="black" d="M2094.31,-304.78C2113.58,-333.87 2138.69,-361.93 2169.98,-378.17 2220.68,-404.49 6234.58,-408.51 6282.98,-378.17 6320.98,-354.36 6342.6,-308.46 6354.66,-269.3"/>
<polygon fill="black" stroke="black" points="6358.08,-270.08 6357.53,-259.5 6351.36,-268.12 6358.08,-270.08"/>
<text text-anchor="middle" x="2395.98" y="-399.97" font-family="Times,serif" font-size="14.00">4</text>
</g>
<!-- Fundamentos_de_Sistemas_Operacionais -->
<g id="node26" class="node">
<title>Fundamentos_de_Sistemas_Operacionais</title>
<ellipse fill="none" stroke="black" cx="4272.98" cy="-200.59" rx="157.44" ry="157.44"/>
<text text-anchor="middle" x="4272.98" y="-196.39" font-family="Times,serif" font-size="14.00">Fundamentos_de_Sistemas_Operacionais</text>
</g>
<!-- Programacao_Concorrente&#45;&gt;Fundamentos_de_Sistemas_Operacionais -->
<g id="edge29" class="edge">
<title>Programacao_Concorrente&#45;&gt;Fundamentos_de_Sistemas_Operacionais</title>
<path fill="none" stroke="black" d="M4080.04,-200.59C4088.29,-200.59 4096.74,-200.59 4105.27,-200.59"/>
<polygon fill="black" stroke="black" points="4105.32,-204.09 4115.32,-200.59 4105.32,-197.09 4105.32,-204.09"/>
<text text-anchor="middle" x="4097.69" y="-206.39" font-family="Times,serif" font-size="14.00">4</text>
</g>
<!-- Bancos_de_Dados -->
<g id="node23" class="node">
<title>Bancos_de_Dados</title>
<ellipse fill="none" stroke="black" cx="7663.98" cy="-200.59" rx="75.86" ry="75.86"/>
<text text-anchor="middle" x="7663.98" y="-196.39" font-family="Times,serif" font-size="14.00">Bancos_de_Dados</text>
</g>
<!-- Software_Basico&#45;&gt;Compiladores -->
<g id="edge28" class="edge">
<title>Software_Basico&#45;&gt;Compiladores</title>
<path fill="none" stroke="black" d="M5821.34,-270.41C5832.16,-309.24 5852.2,-354.4 5888.98,-378.17 5925.75,-401.93 6245.89,-401.42 6282.98,-378.17 6320.98,-354.36 6342.6,-308.46 6354.66,-269.3"/>
<polygon fill="black" stroke="black" points="6358.08,-270.08 6357.53,-259.5 6351.36,-268.12 6358.08,-270.08"/>
<text text-anchor="middle" x="6093.98" y="-399.97" font-family="Times,serif" font-size="14.00">4</text>
</g>
<!-- Automatos_e_Computabilidade&#45;&gt;Compiladores -->
<g id="edge25" class="edge">
<title>Automatos_e_Computabilidade&#45;&gt;Compiladores</title>
<path fill="none" stroke="black" d="M6273.68,-200.59C6282.32,-200.59 6290.85,-200.59 6299.04,-200.59"/>
<polygon fill="black" stroke="black" points="6299.22,-204.09 6309.22,-200.59 6299.22,-197.09 6299.22,-204.09"/>
<text text-anchor="middle" x="6291.42" y="-206.39" font-family="Times,serif" font-size="14.00">6</text>
</g>
<!-- Metodologia_Cientifica -->
<g id="node33" class="node">
<title>Metodologia_Cientifica</title>
<ellipse fill="none" stroke="black" cx="7851.98" cy="-200.59" rx="94.21" ry="94.21"/>
<text text-anchor="middle" x="7851.98" y="-196.39" font-family="Times,serif" font-size="14.00">Metodologia_Cientifica</text>
</g>
<!-- Topicos_Avancados_em_Computadores -->
<g id="node34" class="node">
<title>Topicos_Avancados_em_Computadores</title>
<ellipse fill="none" stroke="black" cx="8115.98" cy="-200.59" rx="152.03" ry="152.03"/>
<text text-anchor="middle" x="8115.98" y="-196.39" font-family="Times,serif" font-size="14.00">Topicos_Avancados_em_Computadores</text>
</g>
</g>
</svg>
